<svg width="48" height="49" viewBox="0 0 48 49" fill="none" xmlns="http://www.w3.org/2000/svg">
<g clip-path="url(#clip0_4_922)">
<path d="M24 0.5C10.8 0.5 0 11.3 0 24.5C0 37.7 10.8 48.5 24 48.5C37.2 48.5 48 37.7 48 24.5C48 11.3 37.32 0.5 24 0.5ZM24 42.62C13.92 42.62 5.76 34.58 5.76 24.5C5.76 14.42 13.92 6.26 24 6.26C34.08 6.26 42.24 14.42 42.24 24.5C42.24 34.58 34.08 42.62 24 42.62Z" fill="#F2F5F9"/>
<path d="M21.12 27.9799C22.8 29.5399 25.32 29.5399 26.88 27.9799V21.0199C25.2 19.4599 22.68 19.4599 21.12 21.0199V27.9799ZM24 12.1399C20.76 12.1399 17.64 13.4599 15.24 15.7399L19.32 19.8199C21.84 17.2999 25.92 17.1799 28.56 19.6999C28.56 19.6999 28.56 19.6999 28.68 19.8199L32.76 15.7399C30.48 13.4599 27.36 12.1399 24 12.1399Z" fill="#F9C846"/>
<path d="M28.68 29.1799C26.16 31.6999 22.08 31.8199 19.44 29.2999C19.44 29.2999 19.44 29.2999 19.32 29.1799L15.24 33.2599C20.04 38.0599 27.84 38.0599 32.64 33.2599L28.68 29.1799ZM24 48.4999C24.12 45.6199 22.44 43.0999 19.68 42.1399C12.6 40.3399 7.19997 34.5799 6.11997 27.3799H18.24C17.28 25.4599 17.28 23.4199 18.24 21.6199H6.11997C7.79997 11.6599 17.04 5.05994 26.88 6.49994C29.16 6.85994 31.44 7.69994 33.48 8.89994C36 10.4599 39.24 9.73994 41.04 7.45994C31.68 -1.90006 16.56 -1.90006 7.07997 7.45994C-2.40003 16.8199 -2.40003 31.9399 7.07997 41.4199C11.64 45.9799 17.64 48.4999 24 48.4999Z" fill="#F9C846"/>
</g>
<defs>
<clipPath id="clip0_4_922">
<rect width="48" height="48" fill="white" transform="translate(0 0.5)"/>
</clipPath>
</defs>
</svg>
