<svg width="84" height="84" viewBox="0 0 84 84" fill="none" xmlns="http://www.w3.org/2000/svg">
<g filter="url(#filter0_d_33_590)">
<circle cx="38" cy="38" r="32" fill="white"/>
</g>
<g clip-path="url(#clip0_33_590)">
<path d="M34.4581 28.4729C35.1043 28.4729 35.7557 28.4834 36.4019 28.4676C36.6383 28.4624 36.7434 28.5569 36.8117 28.7723C37.8204 31.9192 38.8395 35.066 39.8535 38.2128C40.8569 41.3229 41.8655 44.4329 42.8742 47.5483C42.8795 47.564 42.89 47.5798 42.8952 47.5955C43.0213 47.9895 43.0161 47.9948 42.5905 47.9948C41.6029 47.9948 40.61 47.9948 39.6223 47.9948C39.2073 47.9948 39.2073 47.9948 39.0759 47.5903C38.5664 45.988 38.0515 44.3857 37.5524 42.7781C37.4789 42.5417 37.3581 42.4629 37.1216 42.4629C35.2934 42.4681 33.46 42.4734 31.6318 42.4629C31.3743 42.4629 31.2588 42.5627 31.1905 42.7991C30.7071 44.4277 30.2081 46.0563 29.7247 47.6848C29.6565 47.9213 29.5356 48.0001 29.294 48.0001C28.2958 47.9895 27.2976 47.9948 26.2995 47.9948C25.9738 47.9948 25.9633 47.979 26.0631 47.6638C27.5761 42.8832 29.0996 38.1078 30.6231 33.3271C31.1012 31.8246 31.5897 30.3221 32.0573 28.8143C32.1414 28.5464 32.2727 28.4571 32.5406 28.4676C33.1763 28.4834 33.8172 28.4729 34.4581 28.4729ZM34.3215 31.294C34.2743 31.3938 34.248 31.4411 34.2375 31.4936C33.6281 34.1729 32.8085 36.7944 31.9732 39.4106C31.8682 39.7416 31.8892 39.7678 32.2412 39.7678C33.6438 39.7678 35.0413 39.7678 36.444 39.7678C36.8327 39.7678 36.8327 39.7626 36.7171 39.3843C36.0342 37.1148 35.3512 34.8453 34.6735 32.5758C34.5527 32.1661 34.4476 31.751 34.3215 31.294Z" fill="#FF7E1B"/>
<path d="M49.2414 47.979C48.0541 47.979 46.8879 47.979 45.6953 47.979C45.6953 43.2929 45.6953 38.6068 45.6953 33.8997C46.8721 33.8997 48.0489 33.8997 49.2414 33.8997C49.2414 38.5963 49.2414 43.2824 49.2414 47.979Z" fill="#FF7E1B"/>
<path d="M47.5131 28.0053C48.6636 28.0158 49.4726 28.8353 49.4674 29.9806C49.4621 31.0838 48.6005 31.8718 47.4185 31.8613C46.289 31.8508 45.4642 31.0313 45.4747 29.9281C45.4957 28.6672 46.5149 27.9317 47.5131 28.0053Z" fill="#FF7E1B"/>
</g>
<defs>
<filter id="filter0_d_33_590" x="0" y="0" width="84" height="84" filterUnits="userSpaceOnUse" color-interpolation-filters="sRGB">
<feFlood flood-opacity="0" result="BackgroundImageFix"/>
<feColorMatrix in="SourceAlpha" type="matrix" values="0 0 0 0 0 0 0 0 0 0 0 0 0 0 0 0 0 0 127 0" result="hardAlpha"/>
<feOffset dx="4" dy="4"/>
<feGaussianBlur stdDeviation="5"/>
<feComposite in2="hardAlpha" operator="out"/>
<feColorMatrix type="matrix" values="0 0 0 0 0 0 0 0 0 0 0 0 0 0 0 0 0 0 0.15 0"/>
<feBlend mode="normal" in2="BackgroundImageFix" result="effect1_dropShadow_33_590"/>
<feBlend mode="normal" in="SourceGraphic" in2="effect1_dropShadow_33_590" result="shape"/>
</filter>
<clipPath id="clip0_33_590">
<rect width="23.4673" height="20" fill="white" transform="translate(26 28)"/>
</clipPath>
</defs>
</svg>
