<svg width="50" height="50" viewBox="0 0 50 50" fill="none" xmlns="http://www.w3.org/2000/svg">
<g filter="url(#filter0_d_38_198)">
<rect x="8" y="8" width="29.9951" height="30" rx="14.9976" fill="white" shape-rendering="crispEdges"/>
<path d="M20.1749 23.0494C20.514 23.3624 20.8498 23.6558 21.1628 23.9721C22.2777 25.0903 23.3829 26.2183 24.4914 27.3431C24.8631 27.718 25.2315 28.1027 25.6031 28.4809C25.9715 28.8525 25.9748 29.3937 25.6129 29.7621C25.2804 30.0979 24.7131 30.0751 24.3577 29.7132C23.2688 28.608 22.1799 27.5028 21.091 26.3976C20.1945 25.4848 19.2947 24.5752 18.3949 23.6623C18.0134 23.2776 18.0167 22.7201 18.3949 22.3387C20.2075 20.5032 22.0169 18.6677 23.8263 16.8323C24.0122 16.6432 24.1915 16.4476 24.3838 16.2617C24.7327 15.9194 25.2934 15.9129 25.6162 16.2422C25.9748 16.6073 25.9748 17.1452 25.6162 17.5104C24.6381 18.4982 23.6633 19.4893 22.6885 20.4804C21.9485 21.2302 21.2084 21.9801 20.4716 22.7299C20.3901 22.8114 20.3086 22.9027 20.1749 23.0494Z" fill="#D9D9D9"/>
</g>
<defs>
<filter id="filter0_d_38_198" x="0" y="0" width="49.9951" height="50" filterUnits="userSpaceOnUse" color-interpolation-filters="sRGB">
<feFlood flood-opacity="0" result="BackgroundImageFix"/>
<feColorMatrix in="SourceAlpha" type="matrix" values="0 0 0 0 0 0 0 0 0 0 0 0 0 0 0 0 0 0 127 0" result="hardAlpha"/>
<feOffset dx="2" dy="2"/>
<feGaussianBlur stdDeviation="5"/>
<feComposite in2="hardAlpha" operator="out"/>
<feColorMatrix type="matrix" values="0 0 0 0 0 0 0 0 0 0 0 0 0 0 0 0 0 0 0.15 0"/>
<feBlend mode="normal" in2="BackgroundImageFix" result="effect1_dropShadow_38_198"/>
<feBlend mode="normal" in="SourceGraphic" in2="effect1_dropShadow_38_198" result="shape"/>
</filter>
</defs>
</svg>
