<svg width="20" height="20" viewBox="0 0 20 20" fill="none" xmlns="http://www.w3.org/2000/svg">
<g filter="url(#filter0_d_150_245)">
<path d="M13.9224 3.0364C13.8322 3.19673 13.772 3.38714 13.6518 3.51741C10.9561 6.22311 8.2504 8.92881 5.5447 11.6345C5.26411 11.9151 4.92339 12.1155 4.56263 11.9251C4.31211 11.7948 4.02149 11.4842 4.00145 11.2437C3.98141 10.9431 4.17181 10.5623 4.39228 10.3418C5.76517 8.91879 7.16812 7.53588 8.56106 6.14294C9.88384 4.82015 11.2066 3.49737 12.5294 2.17458C12.6196 2.08439 12.6998 1.98418 12.8501 1.8038C12.5895 1.79378 12.4192 1.77374 12.2488 1.77374C10.2947 1.77374 8.34059 1.77374 6.38648 1.77374C6.17603 1.77374 5.95557 1.75369 5.74513 1.69357C5.33426 1.57331 5.15388 1.26266 5.17392 0.851795C5.19396 0.470992 5.37434 0.170359 5.77519 0.09019C6.04576 0.0400844 6.30631 0 6.57688 0C9.19239 0 11.8179 0 14.4435 0C14.6739 0 14.9144 0.0100211 15.1449 0.0501056C15.656 0.140296 15.8965 0.420887 15.9065 0.941985C15.9166 3.91825 15.9166 6.8845 15.9065 9.86077C15.9065 10.3819 15.5658 10.7426 15.0948 10.7727C14.6639 10.7927 14.2931 10.4821 14.2029 9.99105C14.1729 9.83071 14.1729 9.66035 14.1729 9.48999C14.1729 7.56594 14.1729 5.65191 14.1729 3.72785C14.1729 3.54747 14.1729 3.36709 14.1729 3.18671C14.0727 3.13661 14.0025 3.0865 13.9224 3.0364Z" fill="#333333"/>
<path d="M14.1874 2.6124L13.7433 2.33486L13.4866 2.79127C13.4473 2.86111 13.4045 2.95187 13.375 3.01434C13.3648 3.03611 13.3561 3.05444 13.3498 3.06725C13.3174 3.13296 13.2984 3.16146 13.2879 3.17423C10.5959 5.87625 7.89379 8.57831 5.19134 11.2808L5.19115 11.281C5.07369 11.3984 4.97838 11.4622 4.90973 11.4877C4.87947 11.4989 4.86056 11.5004 4.84949 11.4999C4.83982 11.4995 4.82325 11.4973 4.79602 11.4829L4.79331 11.4815C4.73262 11.45 4.64612 11.3829 4.57497 11.3C4.54102 11.2605 4.51832 11.2262 4.50544 11.2016C4.5032 11.1973 4.50147 11.1938 4.50015 11.1909C4.50184 11.1453 4.51724 11.068 4.5621 10.969C4.61232 10.8582 4.68205 10.7591 4.74583 10.6953L4.74589 10.6954L4.75211 10.6889C5.81624 9.58598 6.89768 8.50799 7.98246 7.42666C8.29301 7.1171 8.60384 6.80727 8.91461 6.4965L10.8988 4.51231L12.883 2.52813C12.9762 2.43491 13.0623 2.33107 13.17 2.20118C13.1906 2.1764 13.2119 2.15067 13.2342 2.12389L13.8848 1.34323L12.8693 1.30417C12.7611 1.30001 12.67 1.29404 12.582 1.28828C12.5706 1.28753 12.5593 1.28679 12.548 1.28606C12.4519 1.27982 12.3521 1.27374 12.2488 1.27374H12.2374H12.2259H12.2145H12.203H12.1916H12.1801H12.1687H12.1572H12.1458H12.1343H12.1229H12.1114H12.1H12.0885H12.0771H12.0656H12.0542H12.0427H12.0313H12.0198H12.0084H11.9969H11.9855H11.974H11.9626H11.9511H11.9397H11.9282H11.9168H11.9053H11.8939H11.8824H11.871H11.8595H11.8481H11.8366H11.8252H11.8137H11.8023H11.7908H11.7794H11.7679H11.7565H11.745H11.7336H11.7221H11.7107H11.6992H11.6878H11.6763H11.6649H11.6534H11.642H11.6305H11.6191H11.6076H11.5962H11.5847H11.5733H11.5618H11.5504H11.5389H11.5275H11.516H11.5046H11.4931H11.4817H11.4702H11.4588H11.4473H11.4359H11.4244H11.413H11.4015H11.3901H11.3786H11.3672H11.3557H11.3443H11.3328H11.3214H11.3099H11.2985H11.287H11.2756H11.2641H11.2527H11.2412H11.2298H11.2183H11.2069H11.1954H11.184H11.1725H11.1611H11.1496H11.1382H11.1267H11.1153H11.1038H11.0924H11.0809H11.0695H11.058H11.0466H11.0351H11.0237H11.0122H11.0008H10.9893H10.9779H10.9664H10.955H10.9435H10.9321H10.9206H10.9092H10.8977H10.8863H10.8748H10.8634H10.8519H10.8405H10.829H10.8176H10.8061H10.7947H10.7832H10.7718H10.7603H10.7489H10.7374H10.726H10.7145H10.7031H10.6916H10.6802H10.6687H10.6573H10.6458H10.6344H10.6229H10.6115H10.6H10.5886H10.5771H10.5657H10.5542H10.5428H10.5313H10.5199H10.5084H10.497H10.4855H10.4741H10.4626H10.4512H10.4397H10.4283H10.4168H10.4054H10.3939H10.3825H10.371H10.3596H10.3481H10.3367H10.3252H10.3138H10.3023H10.2909H10.2794H10.268H10.2565H10.2451H10.2336H10.2222H10.2107H10.1993H10.1878H10.1764H10.1649H10.1535H10.142H10.1306H10.1191H10.1077H10.0962H10.0848H10.0733H10.0619H10.0504H10.039H10.0275H10.0161H10.0046H9.9932H9.98175H9.9703H9.95885H9.9474H9.93595H9.9245H9.91305H9.9016H9.89015H9.8787H9.86725H9.8558H9.84435H9.8329H9.82145H9.81H9.79855H9.7871H9.77565H9.7642H9.75275H9.7413H9.72985H9.7184H9.70695H9.6955H9.68405H9.6726H9.66115H9.6497H9.63825H9.6268H9.61535H9.6039H9.59245H9.581H9.56955H9.5581H9.54665H9.5352H9.52375H9.5123H9.50085H9.4894H9.47795H9.4665H9.45505H9.4436H9.43215H9.4207H9.40925H9.3978H9.38635H9.3749H9.36345H9.352H9.34055H9.3291H9.31765H9.3062H9.29475H9.2833H9.27185H9.2604H9.24895H9.2375H9.22605H9.2146H9.20315H9.1917H9.18025H9.1688H9.15735H9.1459H9.13445H9.123H9.11155H9.1001H9.08865H9.0772H9.06575H9.0543H9.04285H9.0314H9.01995H9.0085H8.99705H8.9856H8.97415H8.9627H8.95125H8.93981H8.92836H8.91691H8.90546H8.89401H8.88256H8.87111H8.85966H8.84821H8.83676H8.82531H8.81386H8.80241H8.79096H8.77951H8.76806H8.75661H8.74516H8.73371H8.72226H8.71081H8.69936H8.68791H8.67646H8.66501H8.65356H8.64211H8.63066H8.61921H8.60776H8.59631H8.58486H8.57341H8.56196H8.55051H8.53906H8.52761H8.51616H8.50471H8.49326H8.48181H8.47036H8.45891H8.44746H8.43601H8.42456H8.41311H8.40166H8.39021H8.37876H8.36731H8.35586H8.34441H8.33296H8.32151H8.31006H8.29861H8.28716H8.27571H8.26426H8.25281H8.24136H8.22991H8.21846H8.20701H8.19556H8.18411H8.17266H8.16121H8.14976H8.13831H8.12686H8.11541H8.10396H8.09251H8.08106H8.06961H8.05816H8.04671H8.03526H8.02381H8.01236H8.00091H7.98946H7.97801H7.96656H7.95511H7.94366H7.93221H7.92076H7.90931H7.89786H7.88641H7.87496H7.86351H7.85206H7.84061H7.82916H7.81771H7.80626H7.79481H7.78336H7.77191H7.76046H7.74901H7.73757H7.72611H7.71467H7.70322H7.69177H7.68032H7.66887H7.65742H7.64597H7.63452H7.62307H7.61162H7.60017H7.58872H7.57727H7.56582H7.55437H7.54292H7.53147H7.52002H7.50857H7.49712H7.48567H7.47422H7.46277H7.45132H7.43987H7.42842H7.41697H7.40552H7.39407H7.38262H7.37117H7.35972H7.34827H7.33682H7.32537H7.31392H7.30247H7.29102H7.27957H7.26812H7.25667H7.24522H7.23377H7.22232H7.21087H7.19942H7.18797H7.17652H7.16507H7.15362H7.14217H7.13072H7.11927H7.10782H7.09637H7.08492H7.07347H7.06202H7.05057H7.03912H7.02767H7.01622H7.00477H6.99332H6.98187H6.97042H6.95897H6.94752H6.93607H6.92462H6.91317H6.90172H6.89027H6.87882H6.86737H6.85592H6.84447H6.83302H6.82157H6.81012H6.79867H6.78722H6.77577H6.76432H6.75287H6.74142H6.72997H6.71852H6.70707H6.69562H6.68417H6.67272H6.66127H6.64982H6.63837H6.62692H6.61547H6.60402H6.59257H6.58112H6.56967H6.55822H6.54677H6.53533H6.52388H6.51243H6.50098H6.48953H6.47808H6.46663H6.45518H6.44373H6.43228H6.42083H6.40938H6.39793H6.38648C6.20609 1.27374 6.03562 1.25633 5.88413 1.21327C5.77694 1.18162 5.73622 1.1384 5.71674 1.10853C5.6939 1.07351 5.66722 1.00453 5.67328 0.87711C5.67984 0.755228 5.71009 0.687737 5.73447 0.654595C5.75229 0.630387 5.78424 0.598847 5.87033 0.581073C6.13248 0.532615 6.35502 0.5 6.57688 0.5H6.5922H6.60753H6.62285H6.63818H6.65351H6.66883H6.68416H6.69949H6.71481H6.73014H6.74547H6.7608H6.77613H6.79145H6.80678H6.82211H6.83744H6.85277H6.8681H6.88343H6.89876H6.91409H6.92942H6.94475H6.96008H6.97541H6.99074H7.00607H7.0214H7.03674H7.05207H7.0674H7.08273H7.09807H7.1134H7.12873H7.14407H7.1594H7.17473H7.19007H7.2054H7.22074H7.23607H7.2514H7.26674H7.28207H7.29741H7.31275H7.32808H7.34342H7.35875H7.37409H7.38943H7.40476H7.4201H7.43544H7.45078H7.46611H7.48145H7.49679H7.51213H7.52747H7.54281H7.55814H7.57348H7.58882H7.60416H7.6195H7.63484H7.65018H7.66552H7.68086H7.6962H7.71154H7.72689H7.74223H7.75757H7.77291H7.78825H7.80359H7.81894H7.83428H7.84962H7.86496H7.88031H7.89565H7.91099H7.92634H7.94168H7.95703H7.97237H7.98771H8.00306H8.0184H8.03375H8.04909H8.06444H8.07978H8.09513H8.11048H8.12582H8.14117H8.15651H8.17186H8.18721H8.20255H8.2179H8.23325H8.2486H8.26394H8.27929H8.29464H8.30999H8.32534H8.34068H8.35603H8.37138H8.38673H8.40208H8.41743H8.43278H8.44813H8.46348H8.47883H8.49418H8.50953H8.52488H8.54023H8.55558H8.57093H8.58629H8.60164H8.61699H8.63234H8.64769H8.66305H8.6784H8.69375H8.7091H8.72446H8.73981H8.75516H8.77052H8.78587H8.80122H8.81658H8.83193H8.84729H8.86264H8.87799H8.89335H8.9087H8.92406H8.93941H8.95477H8.97012H8.98548H9.00084H9.01619H9.03155H9.0469H9.06226H9.07762H9.09297H9.10833H9.12369H9.13905H9.1544H9.16976H9.18512H9.20048H9.21583H9.23119H9.24655H9.26191H9.27727H9.29263H9.30799H9.32334H9.3387H9.35406H9.36942H9.38478H9.40014H9.4155H9.43086H9.44622H9.46158H9.47694H9.4923H9.50766H9.52303H9.53839H9.55375H9.56911H9.58447H9.59983H9.61519H9.63056H9.64592H9.66128H9.67664H9.69201H9.70737H9.72273H9.73809H9.75346H9.76882H9.78418H9.79955H9.81491H9.83027H9.84564H9.861H9.87637H9.89173H9.9071H9.92246H9.93782H9.95319H9.96855H9.98392H9.99928H10.0146H10.03H10.0454H10.0607H10.0761H10.0915H10.1068H10.1222H10.1376H10.1529H10.1683H10.1837H10.199H10.2144H10.2298H10.2451H10.2605H10.2759H10.2912H10.3066H10.322H10.3374H10.3527H10.3681H10.3835H10.3988H10.4142H10.4296H10.4449H10.4603H10.4757H10.491H10.5064H10.5218H10.5371H10.5525H10.5679H10.5833H10.5986H10.614H10.6294H10.6447H10.6601H10.6755H10.6908H10.7062H10.7216H10.737H10.7523H10.7677H10.7831H10.7984H10.8138H10.8292H10.8446H10.8599H10.8753H10.8907H10.906H10.9214H10.9368H10.9522H10.9675H10.9829H10.9983H11.0137H11.029H11.0444H11.0598H11.0751H11.0905H11.1059H11.1213H11.1366H11.152H11.1674H11.1828H11.1981H11.2135H11.2289H11.2443H11.2596H11.275H11.2904H11.3058H11.3211H11.3365H11.3519H11.3673H11.3826H11.398H11.4134H11.4288H11.4441H11.4595H11.4749H11.4903H11.5056H11.521H11.5364H11.5518H11.5671H11.5825H11.5979H11.6133H11.6286H11.644H11.6594H11.6748H11.6901H11.7055H11.7209H11.7363H11.7517H11.767H11.7824H11.7978H11.8132H11.8285H11.8439H11.8593H11.8747H11.8901H11.9054H11.9208H11.9362H11.9516H11.9669H11.9823H11.9977H12.0131H12.0285H12.0438H12.0592H12.0746H12.09H12.1053H12.1207H12.1361H12.1515H12.1669H12.1822H12.1976H12.213H12.2284H12.2438H12.2591H12.2745H12.2899H12.3053H12.3207H12.336H12.3514H12.3668H12.3822H12.3976H12.4129H12.4283H12.4437H12.4591H12.4745H12.4898H12.5052H12.5206H12.536H12.5514H12.5667H12.5821H12.5975H12.6129H12.6283H12.6436H12.659H12.6744H12.6898H12.7052H12.7206H12.7359H12.7513H12.7667H12.7821H12.7975H12.8128H12.8282H12.8436H12.859H12.8744H12.8897H12.9051H12.9205H12.9359H12.9513H12.9667H12.982H12.9974H13.0128H13.0282H13.0436H13.0589H13.0743H13.0897H13.1051H13.1205H13.1359H13.1512H13.1666H13.182H13.1974H13.2128H13.2282H13.2435H13.2589H13.2743H13.2897H13.3051H13.3204H13.3358H13.3512H13.3666H13.382H13.3974H13.4127H13.4281H13.4435H13.4589H13.4743H13.4897H13.505H13.5204H13.5358H13.5512H13.5666H13.582H13.5973H13.6127H13.6281H13.6435H13.6589H13.6743H13.6896H13.705H13.7204H13.7358H13.7512H13.7666H13.7819H13.7973H13.8127H13.8281H13.8435H13.8589H13.8742H13.8896H13.905H13.9204H13.9358H13.9512H13.9665H13.9819H13.9973H14.0127H14.0281H14.0435H14.0589H14.0742H14.0896H14.105H14.1204H14.1358H14.1512H14.1665H14.1819H14.1973H14.2127H14.2281H14.2435H14.2588H14.2742H14.2896H14.305H14.3204H14.3358H14.3511H14.3665H14.3819H14.3973H14.4127H14.4281H14.4434C14.6619 0.5 14.8694 0.509757 15.0587 0.542607C15.2423 0.575102 15.3077 0.629091 15.3335 0.659315C15.3593 0.689462 15.4024 0.762423 15.4066 0.947961C15.4166 3.92167 15.4165 6.88537 15.4065 9.85909V9.86077C15.4065 10.1322 15.2572 10.2594 15.0676 10.2734C14.9233 10.2782 14.7461 10.1805 14.6947 9.90072L14.6944 9.8989C14.6744 9.79235 14.6729 9.66979 14.6729 9.48999V9.47872V9.46745V9.45617V9.4449V9.43363V9.42235V9.41108V9.39981V9.38854V9.37727V9.366V9.35472V9.34345V9.33218V9.32091V9.30964V9.29837V9.2871V9.27583V9.26456V9.25329V9.24202V9.23076V9.21949V9.20822V9.19695V9.18568V9.17441V9.16315V9.15188V9.14061V9.12934V9.11808V9.10681V9.09555V9.08428V9.07301V9.06175V9.05048V9.03922V9.02795V9.01669V9.00542V8.99416V8.98289V8.97163V8.96036V8.9491V8.93784V8.92657V8.91531V8.90405V8.89278V8.88152V8.87026V8.859V8.84773V8.83647V8.82521V8.81395V8.80269V8.79143V8.78016V8.7689V8.75764V8.74638V8.73512V8.72386V8.7126V8.70134V8.69008V8.67882V8.66756V8.6563V8.64504V8.63378V8.62253V8.61127V8.60001V8.58875V8.57749V8.56623V8.55498V8.54372V8.53246V8.5212V8.50995V8.49869V8.48743V8.47618V8.46492V8.45366V8.44241V8.43115V8.41989V8.40864V8.39738V8.38613V8.37487V8.36362V8.35236V8.3411V8.32985V8.31859V8.30734V8.29609V8.28483V8.27358V8.26232V8.25107V8.23982V8.22856V8.21731V8.20605V8.1948V8.18355V8.17229V8.16104V8.14979V8.13854V8.12728V8.11603V8.10478V8.09353V8.08227V8.07102V8.05977V8.04852V8.03727V8.02602V8.01476V8.00351V7.99226V7.98101V7.96976V7.95851V7.94726V7.93601V7.92476V7.91351V7.90226V7.89101V7.87976V7.86851V7.85725V7.846V7.83476V7.82351V7.81226V7.80101V7.78976V7.77851V7.76726V7.75601V7.74476V7.73351V7.72226V7.71101V7.69977V7.68852V7.67727V7.66602V7.65477V7.64352V7.63228V7.62103V7.60978V7.59853V7.58728V7.57604V7.56479V7.55354V7.54229V7.53105V7.5198V7.50855V7.4973V7.48606V7.47481V7.46356V7.45232V7.44107V7.42982V7.41858V7.40733V7.39608V7.38484V7.37359V7.36234V7.3511V7.33985V7.3286V7.31736V7.30611V7.29487V7.28362V7.27237V7.26113V7.24988V7.23864V7.22739V7.21614V7.2049V7.19365V7.18241V7.17116V7.15992V7.14867V7.13743V7.12618V7.11493V7.10369V7.09244V7.0812V7.06995V7.05871V7.04746V7.03622V7.02497V7.01373V7.00248V6.99124V6.97999V6.96875V6.9575V6.94626V6.93501V6.92377V6.91252V6.90128V6.89004V6.87879V6.86755V6.8563V6.84506V6.83381V6.82257V6.81132V6.80008V6.78883V6.77759V6.76635V6.7551V6.74386V6.73261V6.72137V6.71012V6.69888V6.68763V6.67639V6.66515V6.6539V6.64266V6.63141V6.62017V6.60892V6.59768V6.58643V6.57519V6.56395V6.5527V6.54146V6.53021V6.51897V6.50772V6.49648V6.48523V6.47399V6.46275V6.4515V6.44026V6.42901V6.41777V6.40652V6.39528V6.38403V6.37279V6.36155V6.3503V6.33906V6.32781V6.31657V6.30532V6.29408V6.28283V6.27159V6.26034V6.2491V6.23785V6.22661V6.21536V6.20412V6.19287V6.18163V6.17038V6.15914V6.14789V6.13665V6.1254V6.11416V6.10291V6.09167V6.08042V6.06918V6.05793V6.04669V6.03544V6.02419V6.01295V6.0017V5.99046V5.97921V5.96797V5.95672V5.94547V5.93423V5.92298V5.91174V5.90049V5.88924V5.878V5.86675V5.8555V5.84426V5.83301V5.82176V5.81052V5.79927V5.78802V5.77678V5.76553V5.75428V5.74304V5.73179V5.72054V5.7093V5.69805V5.6868V5.67555V5.66431V5.65306V5.64181V5.63056V5.61932V5.60807V5.59682V5.58557V5.57432V5.56308V5.55183V5.54058V5.52933V5.51808V5.50683V5.49558V5.48433V5.47309V5.46184V5.45059V5.43934V5.42809V5.41684V5.40559V5.39434V5.38309V5.37184V5.36059V5.34934V5.33809V5.32684V5.31559V5.30434V5.29309V5.28184V5.27059V5.25934V5.24809V5.23684V5.22559V5.21433V5.20308V5.19183V5.18058V5.16933V5.15808V5.14682V5.13557V5.12432V5.11307V5.10182V5.09056V5.07931V5.06806V5.0568V5.04555V5.0343V5.02305V5.01179V5.00054V4.98928V4.97803V4.96678V4.95552V4.94427V4.93301V4.92176V4.91051V4.89925V4.888V4.87674V4.86549V4.85423V4.84298V4.83172V4.82047V4.80921V4.79795V4.7867V4.77544V4.76418V4.75293V4.74167V4.73041V4.71916V4.7079V4.69664V4.68539V4.67413V4.66287V4.65161V4.64035V4.6291V4.61784V4.60658V4.59532V4.58406V4.5728V4.56154V4.55028V4.53903V4.52777V4.51651V4.50525V4.49399V4.48273V4.47146V4.4602V4.44894V4.43768V4.42642V4.41516V4.4039V4.39264V4.38137V4.37011V4.35885V4.34759V4.33633V4.32506V4.3138V4.30254V4.29127V4.28001V4.26875V4.25748V4.24622V4.23495V4.22369V4.21242V4.20116V4.1899V4.17863V4.16736V4.1561V4.14483V4.13357V4.1223V4.11103V4.09977V4.0885V4.07723V4.06597V4.0547V4.04343V4.03216V4.0209V4.00963V3.99836V3.98709V3.97582V3.96455V3.95328V3.94201V3.93075V3.91948V3.90821V3.89693V3.88566V3.87439V3.86312V3.85185V3.84058V3.82931V3.81804V3.80676V3.79549V3.78422V3.77295V3.76167V3.7504V3.73913V3.72785V3.7268V3.72574V3.72468V3.72363V3.72257V3.72151V3.72046V3.7194V3.71834V3.71728V3.71623V3.71517V3.71411V3.71306V3.712V3.71094V3.70989V3.70883V3.70777V3.70672V3.70566V3.7046V3.70354V3.70249V3.70143V3.70037V3.69932V3.69826V3.6972V3.69615V3.69509V3.69403V3.69298V3.69192V3.69086V3.6898V3.68875V3.68769V3.68663V3.68558V3.68452V3.68346V3.68241V3.68135V3.68029V3.67924V3.67818V3.67712V3.67606V3.67501V3.67395V3.67289V3.67184V3.67078V3.66972V3.66867V3.66761V3.66655V3.6655V3.66444V3.66338V3.66233V3.66127V3.66021V3.65915V3.6581V3.65704V3.65598V3.65493V3.65387V3.65281V3.65176V3.6507V3.64964V3.64859V3.64753V3.64647V3.64541V3.64436V3.6433V3.64224V3.64119V3.64013V3.63907V3.63802V3.63696V3.6359V3.63485V3.63379V3.63273V3.63167V3.63062V3.62956V3.6285V3.62745V3.62639V3.62533V3.62428V3.62322V3.62216V3.62111V3.62005V3.61899V3.61793V3.61688V3.61582V3.61476V3.61371V3.61265V3.61159V3.61054V3.60948V3.60842V3.60737V3.60631V3.60525V3.60419V3.60314V3.60208V3.60102V3.59997V3.59891V3.59785V3.5968V3.59574V3.59468V3.59363V3.59257V3.59151V3.59045V3.5894V3.58834V3.58728V3.58623V3.58517V3.58411V3.58306V3.582V3.58094V3.57989V3.57883V3.57777V3.57671V3.57566V3.5746V3.57354V3.57249V3.57143V3.57037V3.56932V3.56826V3.5672V3.56615V3.56509V3.56403V3.56298V3.56192V3.56086V3.5598V3.55875V3.55769V3.55663V3.55558V3.55452V3.55346V3.55241V3.55135V3.55029V3.54924V3.54818V3.54712V3.54606V3.54501V3.54395V3.54289V3.54184V3.54078V3.53972V3.53867V3.53761V3.53655V3.5355V3.53444V3.53338V3.53232V3.53127V3.53021V3.52915V3.5281V3.52704V3.52598V3.52493V3.52387V3.52281V3.52176V3.5207V3.51964V3.51858V3.51753V3.51647V3.51541V3.51436V3.5133V3.51224V3.51119V3.51013V3.50907V3.50802V3.50696V3.5059V3.50484V3.50379V3.50273V3.50167V3.50062V3.49956V3.4985V3.49745V3.49639V3.49533V3.49428V3.49322V3.49216V3.4911V3.49005V3.48899V3.48793V3.48688V3.48582V3.48476V3.48371V3.48265V3.48159V3.48054V3.47948V3.47842V3.47737V3.47631V3.47525V3.47419V3.47314V3.47208V3.47102V3.46997V3.46891V3.46785V3.4668V3.46574V3.46468V3.46363V3.46257V3.46151V3.46045V3.4594V3.45834V3.45728V3.45623V3.45517V3.45411V3.45306V3.452V3.45094V3.44989V3.44883V3.44777V3.44671V3.44566V3.4446V3.44354V3.44249V3.44143V3.44037V3.43932V3.43826V3.4372V3.43615V3.43509V3.43403V3.43297V3.43192V3.43086V3.4298V3.42875V3.42769V3.42663V3.42558V3.42452V3.42346V3.42241V3.42135V3.42029V3.41923V3.41818V3.41712V3.41606V3.41501V3.41395V3.41289V3.41184V3.41078V3.40972V3.40867V3.40761V3.40655V3.40549V3.40444V3.40338V3.40232V3.40127V3.40021V3.39915V3.3981V3.39704V3.39598V3.39493V3.39387V3.39281V3.39175V3.3907V3.38964V3.38858V3.38753V3.38647V3.38541V3.38436V3.3833V3.38224V3.38119V3.38013V3.37907V3.37802V3.37696V3.3759V3.37484V3.37379V3.37273V3.37167V3.37062V3.36956V3.3685V3.36745V3.36639V3.36533V3.36428V3.36322V3.36216V3.3611V3.36005V3.35899V3.35793V3.35688V3.35582V3.35476V3.35371V3.35265V3.35159V3.35054V3.34948V3.34842V3.34736V3.34631V3.34525V3.34419V3.34314V3.34208V3.34102V3.33997V3.33891V3.33785V3.3368V3.33574V3.33468V3.33362V3.33257V3.33151V3.33045V3.3294V3.32834V3.32728V3.32623V3.32517V3.32411V3.32306V3.322V3.32094V3.31988V3.31883V3.31777V3.31671V3.31566V3.3146V3.31354V3.31249V3.31143V3.31037V3.30932V3.30826V3.3072V3.30614V3.30509V3.30403V3.30297V3.30192V3.30086V3.2998V3.29875V3.29769V3.29663V3.29558V3.29452V3.29346V3.2924V3.29135V3.29029V3.28923V3.28818V3.28712V3.28606V3.28501V3.28395V3.28289V3.28184V3.28078V3.27972V3.27867V3.27761V3.27655V3.27549V3.27444V3.27338V3.27232V3.27127V3.27021V3.26915V3.2681V3.26704V3.26598V3.26493V3.26387V3.26281V3.26175V3.2607V3.25964V3.25858V3.25753V3.25647V3.25541V3.25436V3.2533V3.25224V3.25119V3.25013V3.24907V3.24801V3.24696V3.2459V3.24484V3.24379V3.24273V3.24167V3.24062V3.23956V3.2385V3.23745V3.23639V3.23533V3.23427V3.23322V3.23216V3.2311V3.23005V3.22899V3.22793V3.22688V3.22582V3.22476V3.22371V3.22265V3.22159V3.22053V3.21948V3.21842V3.21736V3.21631V3.21525V3.21419V3.21314V3.21208V3.21102V3.20997V3.20891V3.20785V3.20679V3.20574V3.20468V3.20362V3.20257V3.20151V3.20045V3.1994V3.19834V3.19728V3.19623V3.19517V3.19411V3.19306V3.192V3.19094V3.18988V3.18883V3.18777V3.18671V2.8777L14.3965 2.7395L14.1765 3.17938L13.9224 3.0364L14.1874 2.6124Z" stroke="black"/>
</g>
<defs>
<filter id="filter0_d_150_245" x="0" y="0" width="19.9141" height="20" filterUnits="userSpaceOnUse" color-interpolation-filters="sRGB">
<feFlood flood-opacity="0" result="BackgroundImageFix"/>
<feColorMatrix in="SourceAlpha" type="matrix" values="0 0 0 0 0 0 0 0 0 0 0 0 0 0 0 0 0 0 127 0" result="hardAlpha"/>
<feOffset dy="4"/>
<feGaussianBlur stdDeviation="2"/>
<feComposite in2="hardAlpha" operator="out"/>
<feColorMatrix type="matrix" values="0 0 0 0 0 0 0 0 0 0 0 0 0 0 0 0 0 0 0.25 0"/>
<feBlend mode="normal" in2="BackgroundImageFix" result="effect1_dropShadow_150_245"/>
<feBlend mode="normal" in="SourceGraphic" in2="effect1_dropShadow_150_245" result="shape"/>
</filter>
</defs>
</svg>
