<svg width="51" height="50" viewBox="0 0 51 50" fill="none" xmlns="http://www.w3.org/2000/svg">
<g filter="url(#filter0_d_38_201)">
<rect x="8.99512" y="8" width="29.9951" height="30" rx="14.9976" fill="white" shape-rendering="crispEdges"/>
<path d="M26.8153 22.9506C26.4763 22.6376 26.1405 22.3442 25.8275 22.0279C24.7125 20.9097 23.6073 19.7817 22.4988 18.6569C22.1272 18.282 21.7588 17.8973 21.3871 17.5191C21.0187 17.1475 21.0155 16.6063 21.3773 16.2379C21.7099 15.9021 22.2772 15.9249 22.6325 16.2868C23.7214 17.392 24.8103 18.4972 25.8992 19.6024C26.7958 20.5152 27.6956 21.4248 28.5954 22.3377C28.9768 22.7224 28.9736 23.2799 28.5954 23.6613C26.7827 25.4968 24.9733 27.3323 23.1639 29.1677C22.9781 29.3568 22.7988 29.5524 22.6064 29.7383C22.2576 30.0806 21.6968 30.0871 21.3741 29.7578C21.0155 29.3927 21.0155 28.8548 21.3741 28.4896C22.3521 27.5018 23.3269 26.5107 24.3017 25.5196C25.0418 24.7698 25.7818 24.0199 26.5186 23.2701C26.6002 23.1886 26.6817 23.0973 26.8153 22.9506Z" fill="#D9D9D9"/>
</g>
<defs>
<filter id="filter0_d_38_201" x="0.995117" y="0" width="49.9951" height="50" filterUnits="userSpaceOnUse" color-interpolation-filters="sRGB">
<feFlood flood-opacity="0" result="BackgroundImageFix"/>
<feColorMatrix in="SourceAlpha" type="matrix" values="0 0 0 0 0 0 0 0 0 0 0 0 0 0 0 0 0 0 127 0" result="hardAlpha"/>
<feOffset dx="2" dy="2"/>
<feGaussianBlur stdDeviation="5"/>
<feComposite in2="hardAlpha" operator="out"/>
<feColorMatrix type="matrix" values="0 0 0 0 0 0 0 0 0 0 0 0 0 0 0 0 0 0 0.15 0"/>
<feBlend mode="normal" in2="BackgroundImageFix" result="effect1_dropShadow_38_201"/>
<feBlend mode="normal" in="SourceGraphic" in2="effect1_dropShadow_38_201" result="shape"/>
</filter>
</defs>
</svg>
