<svg width="12" height="12" viewBox="0 0 12 12" fill="none" xmlns="http://www.w3.org/2000/svg">
<path d="M9.92235 3.0364C9.83216 3.19673 9.77204 3.38714 9.65178 3.51741C6.9561 6.22311 4.2504 8.92881 1.5447 11.6345C1.26411 11.9151 0.923394 12.1155 0.562634 11.9251C0.312106 11.7948 0.0214939 11.4842 0.00145169 11.2437C-0.0185905 10.9431 0.171811 10.5623 0.392275 10.3418C1.76517 8.91879 3.16812 7.53588 4.56106 6.14294C5.88384 4.82015 7.20663 3.49737 8.52942 2.17458C8.61961 2.08439 8.69978 1.98418 8.85009 1.8038C8.58955 1.79378 8.41919 1.77374 8.24883 1.77374C6.29471 1.77374 4.34059 1.77374 2.38648 1.77374C2.17603 1.77374 1.95557 1.75369 1.74513 1.69357C1.33426 1.57331 1.15388 1.26266 1.17392 0.851795C1.19396 0.470992 1.37434 0.170359 1.77519 0.09019C2.04576 0.0400844 2.30631 0 2.57688 0C5.19239 0 7.81792 0 10.4434 0C10.6739 0 10.9144 0.0100211 11.1449 0.0501056C11.656 0.140296 11.8965 0.420887 11.9065 0.941984C11.9166 3.91825 11.9166 6.8845 11.9065 9.86077C11.9065 10.3819 11.5658 10.7426 11.0948 10.7727C10.6639 10.7927 10.2931 10.4821 10.2029 9.99105C10.1729 9.83071 10.1729 9.66035 10.1729 9.48999C10.1729 7.56594 10.1729 5.65191 10.1729 3.72785C10.1729 3.54747 10.1729 3.36709 10.1729 3.18671C10.0727 3.13661 10.0025 3.0865 9.92235 3.0364Z" fill="#333333"/>
</svg>
