<svg width="84" height="84" viewBox="0 0 84 84" fill="none" xmlns="http://www.w3.org/2000/svg">
<g filter="url(#filter0_d_33_593)">
<circle cx="38" cy="38" r="32" fill="white"/>
</g>
<g clip-path="url(#clip0_33_593)">
<path d="M40.4208 32.1165C40.9078 32.7769 41.4014 33.4239 41.875 34.091C42.0151 34.2844 42.0818 34.2844 42.2152 34.091C42.6222 33.4973 43.0424 32.917 43.456 32.3299C43.6094 32.0965 43.7628 31.863 43.9229 31.6295C44.6034 30.6489 45.2904 29.6616 45.9775 28.6811C46.2243 28.3275 46.3111 27.9539 46.1043 27.5604C45.8908 27.1601 45.5373 26.9934 45.0836 27C44.5633 27.0067 44.043 27.0134 43.5227 27C43.0024 26.9867 42.6155 27.1801 42.322 27.6204C41.6282 28.661 40.9145 29.6883 40.2074 30.7223C39.8338 31.2626 39.8338 31.2626 40.2207 31.8096C40.2874 31.9163 40.3541 32.0164 40.4208 32.1165Z" fill="#73BC45"/>
<path d="M46.8981 47.2589C46.718 46.9988 46.5313 46.732 46.3511 46.4718C46.3111 46.4251 46.2578 46.3784 46.2244 46.325C44.8769 44.4773 43.5361 42.6361 42.1886 40.7883C42.1019 40.6749 42.0419 40.4815 41.8684 40.7216C41.2214 41.6088 40.5676 42.4894 39.9206 43.3699C39.8339 43.49 39.8072 43.5967 39.9273 43.7501C40.4542 44.4239 40.9612 45.111 41.4749 45.7914C41.5149 45.8447 41.5549 45.8981 41.5949 45.9515C41.755 46.1649 41.9151 46.3784 42.0819 46.5919C42.5755 47.2456 43.0825 47.8927 43.5561 48.5531C43.7429 48.8132 43.963 48.94 44.2699 48.96C44.8969 49.0067 45.5373 49.02 46.1577 48.9666C47.0049 48.8999 47.3918 47.9794 46.8981 47.2589Z" fill="#EB2386"/>
<path d="M39.6871 37.1929C38.4129 35.4518 37.1589 33.7041 35.8981 31.9564C35.2577 31.0692 34.624 30.182 33.9903 29.2948C33.5367 28.6611 32.9763 27.4136 32.2159 27.1268C32.0291 27.0201 31.8156 27.0401 31.6155 27.0134C31.3487 27.0134 31.0818 27.0134 30.815 27.0134C30.5949 27.0134 30.3681 27.0134 30.1479 27.0134C29.2274 26.9667 28.6604 27.6805 29.0206 28.4543C29.2874 29.0213 34.8908 36.7059 35.211 37.0862C35.4245 37.313 35.2377 37.4797 35.1376 37.6665C34.3572 39.0474 33.2031 40.3348 32.2826 41.6223C31.1552 43.1965 30.0412 44.7842 28.8805 46.3384C28.6404 46.6853 28.3869 47.0189 28.1734 47.3724C27.7865 48.0061 28.1134 48.8133 28.8071 48.9334C29.2541 49.0134 30.6015 48.9467 30.8217 48.9467C31.1619 48.9667 31.4421 48.86 31.6422 48.5865C32.8029 47.2056 33.7968 45.6314 34.8575 44.1705C36.3584 41.9224 38.0594 39.7878 39.6404 37.5931C39.7271 37.4731 39.8205 37.373 39.6871 37.1929Z" fill="#0B99D7"/>
<path d="M39.6871 37.1929C38.4129 35.4518 37.1589 33.7041 35.8981 31.9564C35.2577 31.0692 34.624 30.182 33.9903 29.2948C33.5367 28.6611 32.9763 27.4136 32.2159 27.1268C32.0291 27.0201 31.8156 27.0401 31.6155 27.0134C31.3487 27.0134 31.0818 27.0134 30.815 27.0134C30.5949 27.0134 30.3681 27.0134 30.1479 27.0134C29.2274 26.9667 28.6604 27.6805 29.0206 28.4543C29.2874 29.0213 34.8908 36.7059 35.211 37.0862C35.4245 37.313 35.2377 37.4797 35.1376 37.6665C34.3572 39.0474 33.2031 40.3348 32.2826 41.6223C31.1552 43.1965 30.0412 44.7842 28.8805 46.3384C28.6404 46.6853 28.3869 47.0189 28.1734 47.3724C27.7865 48.0061 28.1134 48.8133 28.8071 48.9334C29.2541 49.0134 30.6015 48.9467 30.8217 48.9467C31.1619 48.9667 31.4421 48.86 31.6422 48.5865C32.8029 47.2056 33.7968 45.6314 34.8575 44.1705C36.3584 41.9224 38.0594 39.7878 39.6404 37.5931C39.7271 37.4731 39.8205 37.373 39.6871 37.1929Z" fill="url(#paint0_radial_33_593)" fill-opacity="0.2"/>
</g>
<defs>
<filter id="filter0_d_33_593" x="0" y="0" width="84" height="84" filterUnits="userSpaceOnUse" color-interpolation-filters="sRGB">
<feFlood flood-opacity="0" result="BackgroundImageFix"/>
<feColorMatrix in="SourceAlpha" type="matrix" values="0 0 0 0 0 0 0 0 0 0 0 0 0 0 0 0 0 0 127 0" result="hardAlpha"/>
<feOffset dx="4" dy="4"/>
<feGaussianBlur stdDeviation="5"/>
<feComposite in2="hardAlpha" operator="out"/>
<feColorMatrix type="matrix" values="0 0 0 0 0 0 0 0 0 0 0 0 0 0 0 0 0 0 0.15 0"/>
<feBlend mode="normal" in2="BackgroundImageFix" result="effect1_dropShadow_33_593"/>
<feBlend mode="normal" in="SourceGraphic" in2="effect1_dropShadow_33_593" result="shape"/>
</filter>
<radialGradient id="paint0_radial_33_593" cx="0" cy="0" r="1" gradientUnits="userSpaceOnUse" gradientTransform="translate(39.9999 36.5) rotate(134.145) scale(23.6907 12.6702)">
<stop stop-opacity="0"/>
<stop offset="1"/>
</radialGradient>
<clipPath id="clip0_33_593">
<rect width="19.1183" height="22" fill="white" transform="translate(28 27)"/>
</clipPath>
</defs>
</svg>
