<svg width="8" height="14" viewBox="0 0 8 14" fill="none" xmlns="http://www.w3.org/2000/svg">
<path d="M5.93506 6.95058C5.596 6.6376 5.2602 6.34419 4.94723 6.02795C3.83224 4.90971 2.72704 3.78169 1.61858 2.65692C1.24692 2.282 0.87852 1.8973 0.506859 1.51912C0.138459 1.14746 0.135199 0.606269 0.497079 0.237869C0.829617 -0.0979295 1.39689 -0.0751083 1.75225 0.286772C2.84115 1.39197 3.93005 2.49717 5.01895 3.60238C5.9155 4.51523 6.81531 5.42482 7.71512 6.33767C8.09656 6.72237 8.0933 7.27986 7.71512 7.6613C5.90246 9.49678 4.09306 11.3323 2.28366 13.1677C2.09783 13.3568 1.91852 13.5524 1.72617 13.7383C1.37733 14.0806 0.816576 14.0871 0.493818 13.7578C0.135199 13.3927 0.135199 12.8548 0.493818 12.4896C1.47187 11.5018 2.44667 10.5107 3.42146 9.5196C4.16152 8.76976 4.90158 8.01992 5.63838 7.27008C5.71989 7.18857 5.80139 7.09729 5.93506 6.95058Z" fill="#333333"/>
</svg>
