<svg width="61" height="46" viewBox="0 0 61 46" fill="none" xmlns="http://www.w3.org/2000/svg">
<g filter="url(#filter0_d_24_122)">
<path d="M24.125 19.5938C27.4844 20.5312 29.125 23.1094 29.125 26.5469C29.125 32.1719 24.4375 34.5938 19.3594 34.5938H6V6.9375H19.0469C23.7344 6.9375 27.875 8.26562 27.875 13.8125C27.875 16.5469 26.5469 18.3438 24.125 19.5938ZM12.0156 11.625V18.1094H18.1875C20.375 18.1094 21.9375 17.1719 21.9375 14.8281C21.9375 12.25 19.9844 11.625 17.7969 11.625H12.0156ZM18.5781 29.9062C21 29.9062 23.0312 29.0469 23.0312 26.2344C23.0312 23.4219 21.3906 22.25 18.6562 22.25H12.0156V29.9062H18.5781ZM46.5469 11.0781H35.375V8.34375H46.5469V11.0781ZM51 24.9062C51 25.2188 50.9219 25.6094 50.9219 25.9219H36.4688C36.4688 29.125 38.1875 31 41.3906 31C43.0312 31 45.2188 30.1406 45.7656 28.4219H50.6094C49.125 32.9531 46 35.1406 41.2344 35.1406C34.9062 35.1406 30.9219 30.8438 30.9219 24.5938C30.9219 18.5781 35.0625 13.9688 41.2344 13.9688C47.4844 13.9688 51 18.9688 51 24.9062ZM36.4688 22.4062H45.4531C45.2188 19.75 43.8125 18.1875 41 18.1875C38.4219 18.1875 36.625 19.8281 36.4688 22.4062Z" fill="white"/>
</g>
<defs>
<filter id="filter0_d_24_122" x="0" y="0.9375" width="61" height="44.2031" filterUnits="userSpaceOnUse" color-interpolation-filters="sRGB">
<feFlood flood-opacity="0" result="BackgroundImageFix"/>
<feColorMatrix in="SourceAlpha" type="matrix" values="0 0 0 0 0 0 0 0 0 0 0 0 0 0 0 0 0 0 127 0" result="hardAlpha"/>
<feOffset dx="2" dy="2"/>
<feGaussianBlur stdDeviation="4"/>
<feComposite in2="hardAlpha" operator="out"/>
<feColorMatrix type="matrix" values="0 0 0 0 0 0 0 0 0 0.265209 0 0 0 0 0.379167 0 0 0 0.15 0"/>
<feBlend mode="normal" in2="BackgroundImageFix" result="effect1_dropShadow_24_122"/>
<feBlend mode="normal" in="SourceGraphic" in2="effect1_dropShadow_24_122" result="shape"/>
</filter>
</defs>
</svg>
