<svg width="53" height="38" viewBox="0 0 53 38" fill="none" xmlns="http://www.w3.org/2000/svg">
<g filter="url(#filter0_d_16_93)">
<path d="M20.125 15.5938C22.5469 14.3438 23.875 12.5469 23.875 9.8125C23.875 4.26562 19.7344 2.9375 15.0469 2.9375H2V30.5938H15.3594C20.4375 30.5938 25.125 28.1719 25.125 22.5469C25.125 19.1094 23.4844 16.5312 20.125 15.5938ZM8.01562 7.625H13.7969C15.9844 7.625 17.9375 8.25 17.9375 10.8281C17.9375 13.1719 16.375 14.1094 14.1875 14.1094H8.01562V7.625ZM14.5781 25.9062H8.01562V18.25H14.6562C17.3906 18.25 19.0312 19.4219 19.0312 22.2344C19.0312 25.0469 17 25.9062 14.5781 25.9062ZM42.5469 7.07812V4.34375H31.375V7.07812H42.5469ZM47 20.9062C47 14.9688 43.4844 9.96875 37.2344 9.96875C31.0625 9.96875 26.9219 14.5781 26.9219 20.5938C26.9219 26.8438 30.9062 31.1406 37.2344 31.1406C42 31.1406 45.125 28.9531 46.6094 24.4219H41.7656C41.2188 26.1406 39.0312 27 37.3906 27C34.1875 27 32.4688 25.125 32.4688 21.9219H46.9219C46.9219 21.6094 47 21.2188 47 20.9062ZM32.4688 18.4062C32.625 15.8281 34.4219 14.1875 37 14.1875C39.8125 14.1875 41.2188 15.75 41.4531 18.4062H32.4688Z" fill="#043EFE"/>
</g>
<defs>
<filter id="filter0_d_16_93" x="0" y="0.9375" width="53" height="36.2031" filterUnits="userSpaceOnUse" color-interpolation-filters="sRGB">
<feFlood flood-opacity="0" result="BackgroundImageFix"/>
<feColorMatrix in="SourceAlpha" type="matrix" values="0 0 0 0 0 0 0 0 0 0 0 0 0 0 0 0 0 0 127 0" result="hardAlpha"/>
<feOffset dx="2" dy="2"/>
<feGaussianBlur stdDeviation="2"/>
<feComposite in2="hardAlpha" operator="out"/>
<feColorMatrix type="matrix" values="0 0 0 0 0 0 0 0 0 0 0 0 0 0 0 0 0 0 0.05 0"/>
<feBlend mode="normal" in2="BackgroundImageFix" result="effect1_dropShadow_16_93"/>
<feBlend mode="normal" in="SourceGraphic" in2="effect1_dropShadow_16_93" result="shape"/>
</filter>
</defs>
</svg>
