<svg width="45" height="45" viewBox="0 0 45 45" fill="none" xmlns="http://www.w3.org/2000/svg">
<g filter="url(#filter0_d_16_85)">
<path d="M2.04122 21.7606C1.88912 19.4982 2.16043 17.2029 2.81403 15.0434C3.11411 14.0562 3.49229 13.1059 3.95269 12.1845C4.58162 10.9217 5.35032 9.74528 6.25056 8.65933C7.19602 7.5158 8.2648 6.49978 9.45279 5.60717C10.1228 5.10121 10.834 4.66519 11.5492 4.23739C11.5821 4.22917 11.6191 4.22917 11.6479 4.21683C12.4865 3.74789 13.3662 3.35712 14.2705 3.03216C15.0762 2.74422 15.8984 2.49741 16.7452 2.33699C17.5632 2.18479 18.5045 1.92565 19.339 2.02025C21.16 2.01614 22.8742 2.01203 24.6623 2.40692C27.4617 3.02804 30.0597 4.29909 32.2836 6.109C32.7604 6.49567 33.2043 6.91524 33.6565 7.33069C33.6606 7.42119 33.599 7.47878 33.5455 7.53636C32.633 8.56884 31.4984 9.11592 30.109 9.10358C29.6979 9.09947 29.2992 9.06245 28.9005 8.94727C28.7073 8.88968 28.5264 8.77862 28.3209 8.76628C28.2715 8.69224 28.1811 8.68401 28.1112 8.64288C26.878 7.89423 25.5831 7.29367 24.1855 6.91935C23.3181 6.689 22.4385 6.52857 21.5464 6.47921C20.4859 6.41751 19.4294 6.44631 18.373 6.61496C17.5262 6.7507 16.704 6.95226 15.8984 7.2402C14.3692 7.78728 12.9715 8.57706 11.7137 9.60953C10.7888 10.3705 9.97485 11.2343 9.26781 12.201C8.52377 13.2211 7.92772 14.3276 7.47966 15.5082C7.17136 16.3103 6.95349 17.1371 6.78906 17.9845C6.75207 18.1737 6.80551 18.2313 7.00693 18.2313C9.88441 18.2272 12.7619 18.2272 15.6353 18.2272C15.7093 18.2272 15.7874 18.2313 15.8614 18.2272C16.0093 18.2231 16.0258 18.3012 15.9765 18.4123C15.7668 18.873 15.6312 19.3542 15.5531 19.8561C15.4667 20.4155 15.5078 20.9544 15.6229 21.5015C15.701 21.8717 15.8202 22.2213 15.9806 22.5627C16.0381 22.682 16.0052 22.7602 15.849 22.7478C15.7791 22.7437 15.7134 22.7478 15.6435 22.7478C12.766 22.7478 9.88852 22.7478 7.01515 22.7478C6.7644 22.7478 6.75207 22.7519 6.79729 23.0029C6.85895 23.3319 6.94116 23.6528 7.01926 23.9777C7.27413 25.0267 7.66875 26.0221 8.16614 26.9764C9.13216 28.8316 10.4517 30.3906 12.1124 31.6657C13.1812 32.4884 14.3527 33.1301 15.6106 33.6155C16.3218 33.887 17.0576 34.0803 17.7934 34.2737C17.8016 34.323 17.8386 34.3354 17.8797 34.3518C18.6566 34.6891 19.2856 35.2115 19.7665 35.9067C20.3379 36.7376 20.5804 37.6714 20.5763 38.675C20.5763 38.7696 20.5886 38.8643 20.5928 38.9589C20.6092 39.1892 15.6517 38.383 15.1995 38.2514C13.4032 37.7331 11.6972 36.9063 10.1516 35.8573C8.69642 34.8701 7.40567 33.6978 6.27934 32.3445C5.37499 31.2544 4.60218 30.0739 3.96502 28.8069C3.50051 27.8732 3.11822 26.9106 2.80992 25.9111C2.58383 25.1748 2.40707 24.4261 2.27142 23.6692C2.16043 23.0358 2.08644 22.4023 2.04122 21.7606Z" fill="#FFB135"/>
<path d="M28.3167 8.76646C28.5222 8.7788 28.7031 8.88986 28.8963 8.94745C29.295 9.06674 29.6938 9.10376 30.1048 9.10376C31.4942 9.1161 32.6247 8.5649 33.5414 7.53654C33.5948 7.47484 33.6606 7.42137 33.6524 7.33087C34.4622 8.14122 35.1815 9.02149 35.8392 9.95935C36.2585 10.5517 36.6244 11.181 36.9615 11.8186C37.4136 12.6701 37.7877 13.5545 38.1001 14.4677C38.6304 16.0143 38.8647 17.6391 38.951 19.268C39.0538 21.1849 39.0168 22.9989 38.5646 24.8747C38.3098 25.9318 37.9727 26.9643 37.5287 27.9556C37.056 29.0045 36.5134 30.0123 35.8475 30.9584C35.2637 31.7893 34.6389 32.5832 33.9401 33.3154C33.4879 33.7843 33.0111 34.2245 32.5219 34.6523C32.0492 35.0636 31.5477 35.4503 31.0256 35.7999C30.4953 36.1578 29.9486 36.4992 29.3813 36.8036C28.8387 37.0957 28.2838 37.3548 27.7165 37.5975C27.1657 37.832 26.5943 38.0253 26.0229 38.2063C24.2265 38.7698 22.4631 38.959 20.5968 38.959C20.5886 38.8644 20.5763 38.7698 20.5804 38.6752C20.5845 37.6715 20.3419 36.7378 19.7706 35.9069C19.2896 35.2117 18.6607 34.6893 17.8837 34.352C17.8426 34.3355 17.8098 34.3232 17.7974 34.2738C17.8879 34.2615 17.9742 34.2738 18.0605 34.2903C18.8292 34.4178 19.602 34.5083 20.383 34.5165C21.0284 34.5248 21.6656 34.4672 22.3027 34.4014C23.24 34.3026 24.1526 34.0805 25.0363 33.7802C26.1298 33.4059 27.1739 32.9123 28.144 32.2706C29.0114 31.6947 29.8171 31.0489 30.5488 30.3044C31.2887 29.5475 31.9382 28.7248 32.4931 27.824C33.192 26.6846 33.7346 25.4793 34.084 24.1877C34.3265 23.2951 34.4827 22.3901 34.5361 21.4605C34.5896 20.535 34.5855 19.6136 34.4663 18.6963C34.3553 17.8366 34.1785 16.9851 33.9031 16.1583C33.6441 15.3932 33.344 14.6446 32.9576 13.9329C32.4685 13.028 31.9053 12.1724 31.2353 11.3949C30.6639 10.7327 30.0514 10.1074 29.3649 9.56035C29.0196 9.28475 28.6661 9.02972 28.3167 8.76646Z" fill="#E3E1E2"/>
<path d="M20.5186 30.0493C19.9308 30.0287 19.1004 29.9753 18.2783 29.7696C17.3863 29.5433 16.5436 29.2143 15.7502 28.7536C15.0966 28.3751 14.4965 27.9144 13.9415 27.4003C13.81 27.2768 13.8223 27.1822 13.9456 27.0588C14.9116 26.0963 15.8777 25.1296 16.8396 24.163C16.9505 24.0519 17.0163 24.0684 17.1191 24.1671C17.7768 24.7882 18.5455 25.2037 19.4293 25.3929C21.0325 25.7384 22.4671 25.3806 23.7496 24.3728C23.7825 24.3481 23.8154 24.3234 23.8442 24.2946C24.1237 24.0519 24.1237 24.0478 24.395 24.3193C25.3035 25.2242 26.2119 26.1333 27.1204 27.0424C27.2971 27.2193 27.2971 27.2522 27.1204 27.4208C26.2037 28.2846 25.1596 28.9469 23.9839 29.4076C22.9521 29.8066 21.8793 30.0082 20.5186 30.0493Z" fill="#FFB135"/>
<path d="M20.7694 10.9136C22.4014 10.9465 24.1402 11.4114 25.7146 12.4438C26.2284 12.7811 26.7053 13.1555 27.1574 13.5709C27.2808 13.682 27.2849 13.7642 27.1616 13.8876C26.1873 14.8543 25.2172 15.8292 24.2512 16.8041C24.1484 16.911 24.0826 16.8904 23.9881 16.8C23.4743 16.3105 22.8782 15.9485 22.2082 15.7181C21.2874 15.4055 20.3584 15.3438 19.4047 15.5742C18.5291 15.7839 17.7686 16.1871 17.115 16.8041C17.0205 16.8946 16.9506 16.9069 16.8478 16.8041C15.8777 15.821 14.8994 14.8461 13.921 13.8712C13.7772 13.7272 13.8717 13.645 13.9662 13.5503C14.6733 12.884 15.4584 12.3287 16.334 11.9009C17.1767 11.4854 18.0605 11.1975 18.9895 11.0535C19.4992 10.9712 20.0131 10.9136 20.7694 10.9136Z" fill="#FFB135"/>
<path d="M22.8084 20.4897C22.8084 21.3247 22.8043 22.1638 22.8125 22.9989C22.8125 23.1305 22.7755 23.2128 22.6686 23.2909C21.9986 23.8051 21.2504 24.0848 20.4077 24.0519C19.6514 24.0231 18.9813 23.7228 18.3853 23.2662C18.3113 23.2128 18.2866 23.1428 18.2866 23.0523C18.2866 21.337 18.2907 19.6258 18.2866 17.9105C18.2866 17.8242 18.3031 17.7625 18.3812 17.7008C19.0677 17.1825 19.824 16.874 20.6955 16.9151C21.4642 16.9521 22.1342 17.2442 22.7344 17.7172C22.8248 17.7871 22.8084 17.8735 22.8084 17.9558C22.8084 18.8032 22.8084 19.6464 22.8084 20.4897Z" fill="#FFB135"/>
</g>
<defs>
<filter id="filter0_d_16_85" x="0" y="0" width="44.9985" height="45" filterUnits="userSpaceOnUse" color-interpolation-filters="sRGB">
<feFlood flood-opacity="0" result="BackgroundImageFix"/>
<feColorMatrix in="SourceAlpha" type="matrix" values="0 0 0 0 0 0 0 0 0 0 0 0 0 0 0 0 0 0 127 0" result="hardAlpha"/>
<feOffset dx="2" dy="2"/>
<feGaussianBlur stdDeviation="2"/>
<feComposite in2="hardAlpha" operator="out"/>
<feColorMatrix type="matrix" values="0 0 0 0 0 0 0 0 0 0 0 0 0 0 0 0 0 0 0.05 0"/>
<feBlend mode="normal" in2="BackgroundImageFix" result="effect1_dropShadow_16_85"/>
<feBlend mode="normal" in="SourceGraphic" in2="effect1_dropShadow_16_85" result="shape"/>
</filter>
</defs>
</svg>
