<svg width="84" height="84" viewBox="0 0 84 84" fill="none" xmlns="http://www.w3.org/2000/svg">
<g filter="url(#filter0_d_33_592)">
<circle cx="38" cy="38" r="32" fill="white"/>
</g>
<g clip-path="url(#clip0_33_592)">
<path d="M33.591 42.0096C33.2422 41.9234 32.8851 41.8618 32.5486 41.7346C31.0712 41.1764 30.0575 39.7031 30.0041 38.1354C29.9385 36.223 31.2764 34.4254 33.3201 34.0561C33.3612 34.0479 33.4022 34.0561 33.4269 34.0109C33.4925 34.0068 33.5582 34.0068 33.6238 34.0027C33.7059 34.0109 33.788 34.0273 33.8701 33.9986C34.4405 34.0027 35.011 34.0068 35.5855 34.0068C36.3817 34.0068 37.1779 33.9986 37.974 33.9945C37.9864 34.0027 37.9946 34.0109 38.0069 34.0191C38.0069 35.0246 38.0069 36.0342 38.011 37.0397C38.011 37.1176 37.9782 37.2038 38.0602 37.2695C38.0151 37.7086 37.9823 38.1436 38.0479 38.5827C37.9905 38.6689 38.011 38.7674 38.011 38.8618C38.011 39.8303 38.011 40.7989 38.011 41.7674C38.011 41.8495 37.9987 41.9316 37.9946 42.0096C36.5253 42.0096 35.0561 42.0096 33.591 42.0096Z" fill="#A05BFD"/>
<path d="M38.0151 26.275C38.0151 26.1888 38.0274 26.0985 37.9782 26.0164C36.5582 26.0164 35.1382 26.0123 33.7182 26.0205C33.5089 26.0205 33.2955 26.0616 33.0903 26.1108C31.2271 26.5417 29.9631 28.1997 30.0083 30.145C30.0493 31.9795 31.4159 33.58 33.2463 33.933C33.3078 33.9453 33.3858 33.933 33.4269 34.0068C33.4925 34.0027 33.5582 34.0027 33.6238 33.9986C33.7059 34.0068 33.788 34.0232 33.8701 33.9945C34.4405 33.9986 35.011 34.0027 35.5855 34.0027C36.3817 34.0027 37.1779 33.9945 37.9741 33.9904C38.011 33.9001 38.0192 33.8057 38.0192 33.7113C38.0151 31.2325 38.0151 28.7538 38.0151 26.275Z" fill="#F24F1C"/>
<path d="M37.9741 33.9904C38.0111 33.9001 38.0193 33.8057 38.0193 33.7114C38.0193 31.2326 38.0193 28.7538 38.0193 26.2709C38.0193 26.1847 38.0316 26.0944 37.9823 26.0123C39.4146 26.0123 40.851 25.9795 42.2833 26.0205C43.892 26.0657 45.3572 27.2804 45.825 28.8235C46.4242 30.7852 45.4557 32.8495 43.6335 33.6621C43.219 33.8468 42.784 33.9412 42.3366 34.0027C42.0904 34.0068 41.8483 34.0109 41.602 34.015C40.8387 34.015 40.0795 34.0109 39.3161 34.0109C38.8811 34.0109 38.4461 34.0192 38.0111 34.0233C37.9946 34.0109 37.9823 34.0027 37.9741 33.9904Z" fill="#FC725F"/>
<path d="M33.591 42.0095C35.0602 42.0095 36.5254 42.0095 37.9946 42.0095C37.9987 42.0424 38.0028 42.0793 38.0028 42.1121V42.108C37.9987 43.528 38.0726 44.9562 37.9741 46.372C37.8263 48.5471 35.84 50.1846 33.6649 49.9835C31.4159 49.7742 29.8072 47.8454 30.0165 45.6005C30.1847 43.7619 31.6416 42.2681 33.5007 42.03H33.5131C33.5418 42.0259 33.5664 42.0177 33.591 42.0095Z" fill="#0BCD82"/>
<path d="M41.5978 34.011C41.8441 34.0069 42.0862 34.0028 42.3324 33.9987C42.7346 34.0643 43.1368 34.1423 43.5185 34.2941C45.316 35.0205 46.3379 36.9781 45.9029 38.866C45.4638 40.7825 43.7894 42.0671 41.8236 41.9973C39.9316 41.9316 38.2695 40.4255 38.0479 38.5787C37.9822 38.1396 38.0151 37.7004 38.0602 37.2654C38.0725 37.2326 38.0848 37.1998 38.093 37.1669C38.3844 35.907 39.1067 34.9836 40.2599 34.4008C40.6785 34.1874 41.1341 34.093 41.5978 34.011Z" fill="#1ABBFC"/>
</g>
<defs>
<filter id="filter0_d_33_592" x="0" y="0" width="84" height="84" filterUnits="userSpaceOnUse" color-interpolation-filters="sRGB">
<feFlood flood-opacity="0" result="BackgroundImageFix"/>
<feColorMatrix in="SourceAlpha" type="matrix" values="0 0 0 0 0 0 0 0 0 0 0 0 0 0 0 0 0 0 127 0" result="hardAlpha"/>
<feOffset dx="4" dy="4"/>
<feGaussianBlur stdDeviation="5"/>
<feComposite in2="hardAlpha" operator="out"/>
<feColorMatrix type="matrix" values="0 0 0 0 0 0 0 0 0 0 0 0 0 0 0 0 0 0 0.15 0"/>
<feBlend mode="normal" in2="BackgroundImageFix" result="effect1_dropShadow_33_592"/>
<feBlend mode="normal" in="SourceGraphic" in2="effect1_dropShadow_33_592" result="shape"/>
</filter>
<clipPath id="clip0_33_592">
<rect width="16.0014" height="24" fill="white" transform="translate(30 26)"/>
</clipPath>
</defs>
</svg>
