<svg width="38" height="38" viewBox="0 0 38 38" fill="none" xmlns="http://www.w3.org/2000/svg">
<rect width="38" height="38" rx="19" fill="#2DA5E1"/>
<path d="M27.164 10.4683C28.0035 10.4713 28.6125 11.1808 28.4825 12.0529C28.379 12.7447 28.2312 13.4276 28.0981 14.1135C27.5305 17.0284 26.9629 19.9433 26.3953 22.8553C26.1706 24.0053 25.9637 25.1582 25.7124 26.3023C25.5912 26.8492 25.2217 27.2365 24.6866 27.4168C24.0569 27.6267 23.4627 27.5588 22.9157 27.133C21.8662 26.3141 20.8079 25.513 19.7554 24.7C19.6668 24.632 19.6165 24.632 19.5337 24.7089C18.8952 25.2972 18.2477 25.8737 17.6151 26.4649C17.1805 26.8729 16.27 26.9734 15.859 26.2343C15.7053 25.9564 15.5871 25.6549 15.4924 25.3533C15.0786 24.0348 14.6765 22.7104 14.2744 21.386C14.2419 21.2766 14.1887 21.2175 14.0764 21.179C12.9412 20.8006 11.8089 20.4193 10.6766 20.032C10.2953 19.9019 9.97302 19.6802 9.73947 19.3461C9.35515 18.7963 9.43793 18.0986 9.95528 17.6729C10.1415 17.5191 10.3573 17.3861 10.582 17.2915C14.9485 15.4468 19.3179 13.6079 23.6873 11.7691C24.5624 11.3996 25.4404 11.0359 26.3184 10.6723C26.5934 10.5541 26.8683 10.4654 27.164 10.4683ZM11.1378 18.6396C11.2147 18.6691 11.2501 18.6839 11.2856 18.6957C12.6248 19.1481 13.964 19.5974 15.3032 20.0527C15.4097 20.0882 15.4777 20.0556 15.5604 20.0054C18.4517 18.2139 21.3459 16.4194 24.2402 14.6308C24.317 14.5835 24.4087 14.5392 24.4974 14.5273C24.5683 14.5155 24.6925 14.5333 24.7132 14.5776C24.7486 14.6486 24.7398 14.7609 24.7073 14.8348C24.6688 14.9205 24.5831 14.9856 24.5121 15.0536C23.3887 16.1031 22.2654 17.1496 21.142 18.1991C19.9565 19.3047 18.771 20.4074 17.5855 21.5161C17.5353 21.5634 17.4939 21.6343 17.485 21.7023C17.3135 22.7784 17.145 23.8515 16.9795 24.9276C16.9736 24.9631 16.9736 25.0015 16.9706 25.0755C17.8516 24.2743 18.703 23.4968 19.5574 22.7193C19.5958 22.7459 19.6254 22.7636 19.652 22.7843C20.5418 23.4672 21.4346 24.1501 22.3245 24.836C22.8241 25.2203 23.3208 25.6076 23.8263 25.986C24.0717 26.1693 24.2993 26.119 24.3318 25.7968C24.3348 25.7524 24.3495 25.7111 24.3584 25.6667C24.8462 23.1568 25.334 20.6499 25.8247 18.14C26.215 16.1444 26.6052 14.1519 26.9954 12.1564C27.0073 12.1032 27.0102 12.047 27.0191 11.9554C21.7155 14.1844 16.4473 16.4046 11.1378 18.6396Z" fill="white"/>
</svg>
