<svg width="48" height="48" viewBox="0 0 48 48" fill="none" xmlns="http://www.w3.org/2000/svg">
<g filter="url(#filter0_d_119_139)">
<path d="M6 22C6 19.0982 6.71424 16.4218 8.144 13.968C9.57376 11.5142 11.5142 9.57376 13.968 8.144C16.4218 6.71424 19.0982 6 22 6C24.9018 6 27.5782 6.71424 30.032 8.144C32.4858 9.57376 34.4262 11.5142 35.856 13.968C37.2858 16.4218 38 19.0982 38 22C38 24.9018 37.2858 27.5782 35.856 30.032C34.4262 32.4858 32.4858 34.4262 30.032 35.856C27.5782 37.2858 24.9018 38 22 38C19.0982 38 16.4218 37.2858 13.968 35.856C11.5142 34.4262 9.57376 32.4858 8.144 30.032C6.71424 27.5782 6 24.9018 6 22ZM8.656 22C8.656 25.328 9.776 28.2618 12.016 30.8C13.04 28.7942 14.6618 26.8858 16.88 25.072C19.0982 23.2582 21.264 22.1178 23.376 21.648C23.056 20.9018 22.7462 20.2298 22.448 19.632C18.7782 20.8058 14.8102 21.392 10.544 21.392C9.712 21.392 9.09376 21.3818 8.688 21.36C8.688 21.4458 8.68288 21.552 8.67264 21.68C8.66112 21.808 8.656 21.9142 8.656 22ZM9.072 18.704C9.54176 18.7462 10.2342 18.768 11.152 18.768C14.7142 18.768 18.096 18.288 21.296 17.328C19.6742 14.448 17.8938 12.048 15.952 10.128C14.2662 10.9818 12.8211 12.1658 11.6166 13.68C10.4109 15.1942 9.56224 16.8698 9.072 18.704ZM13.84 32.528C16.2502 34.4058 18.9702 35.344 22 35.344C23.5782 35.344 25.1462 35.0458 26.704 34.448C26.2778 30.8 25.4458 27.2698 24.208 23.856C22.2458 24.2822 20.2669 25.36 18.2714 27.088C16.2771 28.816 14.8 30.6298 13.84 32.528ZM18.736 9.104C20.6138 11.0458 22.352 13.4662 23.952 16.368C26.8538 15.152 29.04 13.6058 30.512 11.728C28.0378 9.68 25.2 8.656 22 8.656C20.912 8.656 19.824 8.80576 18.736 9.104ZM25.104 18.64C25.424 19.3222 25.7862 20.1862 26.192 21.232C27.7702 21.0822 29.488 21.008 31.344 21.008C32.6662 21.008 33.9782 21.04 35.28 21.104C35.1098 18.2022 34.064 15.6218 32.144 13.36C30.7578 15.4298 28.4102 17.1898 25.104 18.64ZM26.992 23.472C28.08 26.6298 28.816 29.872 29.2 33.2C30.8858 32.112 32.2618 30.7142 33.328 29.008C34.3942 27.3018 35.0342 25.456 35.248 23.472C33.6902 23.3658 32.272 23.312 30.992 23.312C29.8182 23.312 28.4858 23.3658 26.992 23.472Z" fill="white"/>
</g>
<defs>
<filter id="filter0_d_119_139" x="0" y="0" width="48" height="48" filterUnits="userSpaceOnUse" color-interpolation-filters="sRGB">
<feFlood flood-opacity="0" result="BackgroundImageFix"/>
<feColorMatrix in="SourceAlpha" type="matrix" values="0 0 0 0 0 0 0 0 0 0 0 0 0 0 0 0 0 0 127 0" result="hardAlpha"/>
<feOffset dx="2" dy="2"/>
<feGaussianBlur stdDeviation="4"/>
<feComposite in2="hardAlpha" operator="out"/>
<feColorMatrix type="matrix" values="0 0 0 0 0 0 0 0 0 0.265209 0 0 0 0 0.379167 0 0 0 0.15 0"/>
<feBlend mode="normal" in2="BackgroundImageFix" result="effect1_dropShadow_119_139"/>
<feBlend mode="normal" in="SourceGraphic" in2="effect1_dropShadow_119_139" result="shape"/>
</filter>
</defs>
</svg>
