<svg width="53" height="42" viewBox="0 0 53 42" fill="none" xmlns="http://www.w3.org/2000/svg">
<g filter="url(#filter0_d_12_106)">
<path d="M26.4268 14.8474C26.6986 14.228 26.9334 13.5962 27.2423 12.9892C28.9598 9.60711 32.1972 7.90989 35.904 8.4302C39.3391 8.91335 42.144 11.614 42.8483 15.0952C43.7997 19.84 40.1546 24.5724 35.3357 24.8945C33.2227 25.0308 31.2457 24.5724 29.417 23.507C28.9845 23.2592 28.898 23.3583 28.8116 23.7919C28.2926 26.3192 27.7366 28.8341 27.2052 31.3489C27.1187 31.7701 26.9705 31.9683 26.4886 31.9436C25.4259 31.9064 24.3509 31.9188 23.2759 31.9436C22.8558 31.956 22.7693 31.8569 22.8558 31.4233C23.6466 27.8182 24.4127 24.2132 25.1912 20.6081C25.29 20.1497 25.2529 19.8028 24.944 19.4188C23.9432 18.1676 23.1524 16.7553 22.2751 15.3306C22.2751 15.8385 22.2751 16.3465 22.2751 16.8544C22.2627 19.0967 21.4719 21.0293 19.8533 22.5531C17.3573 24.9441 14.3918 25.6007 11.1915 24.337C7.99125 23.0734 6.18723 20.5957 6.06367 17.1269C5.94011 13.5838 6.03896 10.0283 6.01424 6.48521C6.01424 6.08878 6.16252 6.00206 6.52085 6.00206C7.57113 6.01444 8.62141 6.02683 9.6717 6.00206C10.1536 5.98967 10.2524 6.15072 10.2524 6.60909C10.2401 10.0159 10.2154 13.4228 10.2524 16.8172C10.2895 19.7781 13.2921 21.624 15.8993 20.3108C17.3326 19.5922 18.0616 18.3782 18.0616 16.7677C18.074 13.4104 18.074 10.0407 18.0492 6.68342C18.0492 6.12594 18.2099 5.98967 18.7412 6.00206C19.705 6.03922 20.6811 6.05161 21.6449 6.00206C22.1639 5.97728 22.3492 6.1755 22.4851 6.64626C23.313 9.35934 24.4992 11.9238 25.982 14.3271C26.0808 14.4882 26.192 14.6368 26.2909 14.7855C26.3279 14.8103 26.3774 14.8227 26.4268 14.8474ZM33.5687 20.8063C35.8546 20.8311 37.5351 19.456 37.9305 17.4862C38.3753 15.3554 37.3374 13.2617 35.4716 12.4812C33.6799 11.7379 31.8512 12.3697 30.8009 14.0917C29.9483 15.4793 29.8124 17.0898 29.4664 18.6259C29.417 18.8242 29.5282 18.9356 29.6641 19.0471C30.8998 20.063 32.2589 20.7691 33.5687 20.8063Z" fill="white"/>
</g>
<defs>
<filter id="filter0_d_12_106" x="0" y="-6" width="53" height="53.9456" filterUnits="userSpaceOnUse" color-interpolation-filters="sRGB">
<feFlood flood-opacity="0" result="BackgroundImageFix"/>
<feColorMatrix in="SourceAlpha" type="matrix" values="0 0 0 0 0 0 0 0 0 0 0 0 0 0 0 0 0 0 127 0" result="hardAlpha"/>
<feOffset dx="2" dy="2"/>
<feGaussianBlur stdDeviation="4"/>
<feComposite in2="hardAlpha" operator="out"/>
<feColorMatrix type="matrix" values="0 0 0 0 0 0 0 0 0 0.265209 0 0 0 0 0.379167 0 0 0 0.15 0"/>
<feBlend mode="normal" in2="BackgroundImageFix" result="effect1_dropShadow_12_106"/>
<feBlend mode="normal" in="SourceGraphic" in2="effect1_dropShadow_12_106" result="shape"/>
</filter>
</defs>
</svg>
