<svg width="37" height="37" viewBox="0 0 37 37" fill="none" xmlns="http://www.w3.org/2000/svg">
<path d="M20.4268 14.8474C20.6986 14.228 20.9334 13.5962 21.2423 12.9892C22.9598 9.60711 26.1972 7.90989 29.904 8.4302C33.3391 8.91335 36.144 11.614 36.8483 15.0952C37.7997 19.84 34.1546 24.5724 29.3357 24.8945C27.2227 25.0308 25.2457 24.5724 23.417 23.507C22.9845 23.2592 22.898 23.3583 22.8116 23.7919C22.2926 26.3192 21.7366 28.8341 21.2052 31.3489C21.1187 31.7701 20.9705 31.9683 20.4886 31.9436C19.4259 31.9064 18.3509 31.9188 17.2759 31.9436C16.8558 31.956 16.7693 31.8569 16.8558 31.4233C17.6466 27.8182 18.4127 24.2132 19.1912 20.6081C19.29 20.1497 19.2529 19.8028 18.944 19.4188C17.9432 18.1676 17.1524 16.7553 16.2751 15.3306C16.2751 15.8385 16.2751 16.3465 16.2751 16.8544C16.2627 19.0967 15.4719 21.0293 13.8533 22.5531C11.3573 24.9441 8.39179 25.6007 5.19152 24.337C1.99125 23.0734 0.187231 20.5957 0.0636683 17.1269C-0.0598944 13.5838 0.0389557 10.0283 0.0142432 6.48521C0.0142432 6.08878 0.162518 6.00206 0.52085 6.00206C1.57113 6.01444 2.62141 6.02683 3.6717 6.00206C4.15359 5.98967 4.25244 6.15072 4.25244 6.60909C4.24009 10.0159 4.21537 13.4228 4.25244 16.8172C4.28951 19.7781 7.29208 21.624 9.89925 20.3108C11.3326 19.5922 12.0616 18.3782 12.0616 16.7677C12.074 13.4104 12.074 10.0407 12.0492 6.68342C12.0492 6.12594 12.2099 5.98967 12.7412 6.00206C13.705 6.03922 14.6811 6.05161 15.6449 6.00206C16.1639 5.97728 16.3492 6.1755 16.4851 6.64626C17.313 9.35934 18.4992 11.9238 19.982 14.3271C20.0808 14.4882 20.192 14.6368 20.2909 14.7855C20.3279 14.8103 20.3774 14.8227 20.4268 14.8474ZM27.5687 20.8063C29.8546 20.8311 31.5351 19.456 31.9305 17.4862C32.3753 15.3554 31.3374 13.2617 29.4716 12.4812C27.6799 11.7379 25.8512 12.3697 24.8009 14.0917C23.9483 15.4793 23.8124 17.0898 23.4664 18.6259C23.417 18.8242 23.5282 18.9356 23.6641 19.0471C24.8998 20.063 26.2589 20.7691 27.5687 20.8063Z" fill="#15A800"/>
</svg>
