<svg width="32" height="32" viewBox="0 0 32 32" fill="none" xmlns="http://www.w3.org/2000/svg">
<path d="M0 16C0 13.0982 0.71424 10.4218 2.144 7.968C3.57376 5.51424 5.51424 3.57376 7.968 2.144C10.4218 0.71424 13.0982 0 16 0C18.9018 0 21.5782 0.71424 24.032 2.144C26.4858 3.57376 28.4262 5.51424 29.856 7.968C31.2858 10.4218 32 13.0982 32 16C32 18.9018 31.2858 21.5782 29.856 24.032C28.4262 26.4858 26.4858 28.4262 24.032 29.856C21.5782 31.2858 18.9018 32 16 32C13.0982 32 10.4218 31.2858 7.968 29.856C5.51424 28.4262 3.57376 26.4858 2.144 24.032C0.71424 21.5782 0 18.9018 0 16ZM2.656 16C2.656 19.328 3.776 22.2618 6.016 24.8C7.04 22.7942 8.66176 20.8858 10.88 19.072C13.0982 17.2582 15.264 16.1178 17.376 15.648C17.056 14.9018 16.7462 14.2298 16.448 13.632C12.7782 14.8058 8.81024 15.392 4.544 15.392C3.712 15.392 3.09376 15.3818 2.688 15.36C2.688 15.4458 2.68288 15.552 2.67264 15.68C2.66112 15.808 2.656 15.9142 2.656 16ZM3.072 12.704C3.54176 12.7462 4.23424 12.768 5.152 12.768C8.71424 12.768 12.096 12.288 15.296 11.328C13.6742 8.448 11.8938 6.048 9.952 4.128C8.26624 4.98176 6.82112 6.16576 5.61664 7.68C4.41088 9.19424 3.56224 10.8698 3.072 12.704ZM7.84 26.528C10.2502 28.4058 12.9702 29.344 16 29.344C17.5782 29.344 19.1462 29.0458 20.704 28.448C20.2778 24.8 19.4458 21.2698 18.208 17.856C16.2458 18.2822 14.2669 19.36 12.2714 21.088C10.2771 22.816 8.8 24.6298 7.84 26.528ZM12.736 3.104C14.6138 5.04576 16.352 7.46624 17.952 10.368C20.8538 9.152 23.04 7.60576 24.512 5.728C22.0378 3.68 19.2 2.656 16 2.656C14.912 2.656 13.824 2.80576 12.736 3.104ZM19.104 12.64C19.424 13.3222 19.7862 14.1862 20.192 15.232C21.7702 15.0822 23.488 15.008 25.344 15.008C26.6662 15.008 27.9782 15.04 29.28 15.104C29.1098 12.2022 28.064 9.62176 26.144 7.36C24.7578 9.42976 22.4102 11.1898 19.104 12.64ZM20.992 17.472C22.08 20.6298 22.816 23.872 23.2 27.2C24.8858 26.112 26.2618 24.7142 27.328 23.008C28.3942 21.3018 29.0342 19.456 29.248 17.472C27.6902 17.3658 26.272 17.312 24.992 17.312C23.8182 17.312 22.4858 17.3658 20.992 17.472Z" fill="#EB578F"/>
</svg>
