<svg width="46" height="46" viewBox="0 0 46 46" fill="none" xmlns="http://www.w3.org/2000/svg">
<g filter="url(#filter0_d_16_81)">
<path d="M12.8125 38V14.6406H5.54688V38H12.8125ZM9.14062 11.5156C11.4844 11.5156 13.3594 9.5625 13.3594 7.21875C13.3594 4.95312 11.4844 3.07812 9.14062 3.07812C6.875 3.07812 5 4.95312 5 7.21875C5 9.5625 6.875 11.5156 9.14062 11.5156ZM39.9219 38H40V25.1875C40 18.9375 38.5938 14.0938 31.25 14.0938C27.7344 14.0938 25.3906 16.0469 24.375 17.8438H24.2969V14.6406H17.3438V38H24.6094V26.4375C24.6094 23.3906 25.1562 20.5 28.9062 20.5C32.6562 20.5 32.7344 23.9375 32.7344 26.6719V38H39.9219Z" fill="#0A66C2"/>
</g>
<defs>
<filter id="filter0_d_16_81" x="3" y="1.07812" width="43" height="42.9219" filterUnits="userSpaceOnUse" color-interpolation-filters="sRGB">
<feFlood flood-opacity="0" result="BackgroundImageFix"/>
<feColorMatrix in="SourceAlpha" type="matrix" values="0 0 0 0 0 0 0 0 0 0 0 0 0 0 0 0 0 0 127 0" result="hardAlpha"/>
<feOffset dx="2" dy="2"/>
<feGaussianBlur stdDeviation="2"/>
<feComposite in2="hardAlpha" operator="out"/>
<feColorMatrix type="matrix" values="0 0 0 0 0 0 0 0 0 0 0 0 0 0 0 0 0 0 0.05 0"/>
<feBlend mode="normal" in2="BackgroundImageFix" result="effect1_dropShadow_16_81"/>
<feBlend mode="normal" in="SourceGraphic" in2="effect1_dropShadow_16_81" result="shape"/>
</filter>
</defs>
</svg>
