<svg width="51" height="51" viewBox="0 0 51 51" fill="none" xmlns="http://www.w3.org/2000/svg">
<g filter="url(#filter0_d_24_118)">
<path d="M13.8125 41H6.54688V17.6406H13.8125V41ZM10.1406 14.5156C7.875 14.5156 6 12.5625 6 10.2188C6 7.95312 7.875 6.07812 10.1406 6.07812C12.4844 6.07812 14.3594 7.95312 14.3594 10.2188C14.3594 12.5625 12.4844 14.5156 10.1406 14.5156ZM40.9219 41H33.7344V29.6719C33.7344 26.9375 33.6562 23.5 29.9062 23.5C26.1562 23.5 25.6094 26.3906 25.6094 29.4375V41H18.3438V17.6406H25.2969V20.8438H25.375C26.3906 19.0469 28.7344 17.0938 32.25 17.0938C39.5938 17.0938 41 21.9375 41 28.1875V41H40.9219Z" fill="white"/>
</g>
<defs>
<filter id="filter0_d_24_118" x="0" y="0.078125" width="51" height="50.9219" filterUnits="userSpaceOnUse" color-interpolation-filters="sRGB">
<feFlood flood-opacity="0" result="BackgroundImageFix"/>
<feColorMatrix in="SourceAlpha" type="matrix" values="0 0 0 0 0 0 0 0 0 0 0 0 0 0 0 0 0 0 127 0" result="hardAlpha"/>
<feOffset dx="2" dy="2"/>
<feGaussianBlur stdDeviation="4"/>
<feComposite in2="hardAlpha" operator="out"/>
<feColorMatrix type="matrix" values="0 0 0 0 0 0 0 0 0 0.265209 0 0 0 0 0.379167 0 0 0 0.15 0"/>
<feBlend mode="normal" in2="BackgroundImageFix" result="effect1_dropShadow_24_118"/>
<feBlend mode="normal" in="SourceGraphic" in2="effect1_dropShadow_24_118" result="shape"/>
</filter>
</defs>
</svg>
