<svg width="39" height="48" viewBox="0 0 39 48" fill="none" xmlns="http://www.w3.org/2000/svg">
<g filter="url(#filter0_d_24_79)">
<path d="M17.2495 23.1117C19.1675 23.2764 20.9208 22.9083 22.616 22.0074C22.6257 22.2205 22.6354 22.3755 22.6354 22.5305C22.6354 26.599 22.6548 30.6578 22.616 34.7263C22.6063 35.3656 22.4901 36.0631 22.2286 36.6443C21.7345 37.7583 20.7271 38.0876 19.5744 37.9811C18.5282 37.8842 17.8017 37.3127 17.4529 36.3343C17.2979 35.8984 17.2204 35.4237 17.2204 34.9588C17.2011 31.1324 17.2108 27.3158 17.2108 23.4895C17.2204 23.3829 17.2398 23.2667 17.2495 23.1117Z" fill="white"/>
<path d="M15.7674 16.1468C15.7674 13.9285 17.5401 12.1364 19.7584 12.1364C21.9476 12.1268 23.7784 13.9382 23.7881 16.1274C23.8075 18.336 21.9863 20.1572 19.7487 20.1475C17.511 20.1475 15.7674 18.3942 15.7674 16.1468Z" fill="white"/>
<path d="M6.60362 21.9299C6.78767 20.9224 6.9136 19.9053 7.17515 18.9173C8.29883 14.6163 10.5171 11.0128 14.1885 8.3973C16.6392 6.64397 19.3613 5.79153 22.3836 6.04339C24.6697 6.22744 26.6555 7.10895 28.186 8.88165C28.5057 9.24975 28.7866 9.6566 28.8447 10.3541C28.4379 10.1216 28.1279 9.98595 27.847 9.79221C26.5586 8.93977 25.2315 8.24231 23.7107 7.93233C20.4268 7.26394 17.4336 8.01951 14.6825 9.84065C11.4858 11.9524 9.36439 14.9166 7.98885 18.4523C7.54325 19.605 7.15578 20.7868 6.74893 21.9493C6.71018 21.9396 6.65206 21.9396 6.60362 21.9299Z" fill="white"/>
</g>
<defs>
<filter id="filter0_d_24_79" x="0.603622" y="0" width="38.2411" height="48" filterUnits="userSpaceOnUse" color-interpolation-filters="sRGB">
<feFlood flood-opacity="0" result="BackgroundImageFix"/>
<feColorMatrix in="SourceAlpha" type="matrix" values="0 0 0 0 0 0 0 0 0 0 0 0 0 0 0 0 0 0 127 0" result="hardAlpha"/>
<feOffset dx="2" dy="2"/>
<feGaussianBlur stdDeviation="4"/>
<feComposite in2="hardAlpha" operator="out"/>
<feColorMatrix type="matrix" values="0 0 0 0 0 0 0 0 0 0.265209 0 0 0 0 0.379167 0 0 0 0.15 0"/>
<feBlend mode="normal" in2="BackgroundImageFix" result="effect1_dropShadow_24_79"/>
<feBlend mode="normal" in="SourceGraphic" in2="effect1_dropShadow_24_79" result="shape"/>
</filter>
</defs>
</svg>
