<svg width="32" height="40" viewBox="0 0 32 40" fill="none" xmlns="http://www.w3.org/2000/svg">
<g filter="url(#filter0_d_16_74)">
<path d="M14.2495 19.1117C16.1675 19.2764 17.9209 18.9083 19.6161 18.0074C19.6258 18.2205 19.6355 18.3755 19.6355 18.5305C19.6355 22.599 19.6548 26.6578 19.6161 30.7263C19.6064 31.3656 19.4902 32.0631 19.2286 32.6443C18.7346 33.7583 17.7271 34.0876 16.5744 33.9811C15.5282 33.8842 14.8017 33.3127 14.453 32.3343C14.298 31.8984 14.2205 31.4237 14.2205 30.9588C14.2011 27.1324 14.2108 23.3158 14.2108 19.4895C14.2205 19.3829 14.2399 19.2667 14.2495 19.1117Z" fill="#003A9B"/>
<path d="M12.7674 12.1468C12.7674 9.92853 14.5401 8.13645 16.7584 8.13645C18.9476 8.12677 20.7785 9.93821 20.7881 12.1275C20.8075 14.3361 18.9864 16.1572 16.7487 16.1475C14.511 16.1475 12.7674 14.3942 12.7674 12.1468Z" fill="#003A9B"/>
<path d="M3.60364 17.9299C3.78769 16.9224 3.91362 15.9053 4.17516 14.9173C5.29884 10.6163 7.51714 7.01276 11.1885 4.3973C13.6393 2.64397 16.3613 1.79153 19.3836 2.04339C21.6697 2.22744 23.6555 3.10895 25.186 4.88165C25.5057 5.24975 25.7866 5.6566 25.8447 6.35405C25.4379 6.12157 25.1279 5.98595 24.847 5.79221C23.5586 4.93977 22.2315 4.24231 20.7107 3.93233C17.4268 3.26394 14.4336 4.01951 11.6825 5.84065C8.48583 7.95239 6.3644 10.9166 4.98886 14.4523C4.54327 15.605 4.15579 16.7868 3.74894 17.9493C3.71019 17.9396 3.65207 17.9396 3.60364 17.9299Z" fill="#003A9B"/>
</g>
<defs>
<filter id="filter0_d_16_74" x="1.60364" y="0" width="30.2411" height="40" filterUnits="userSpaceOnUse" color-interpolation-filters="sRGB">
<feFlood flood-opacity="0" result="BackgroundImageFix"/>
<feColorMatrix in="SourceAlpha" type="matrix" values="0 0 0 0 0 0 0 0 0 0 0 0 0 0 0 0 0 0 127 0" result="hardAlpha"/>
<feOffset dx="2" dy="2"/>
<feGaussianBlur stdDeviation="2"/>
<feComposite in2="hardAlpha" operator="out"/>
<feColorMatrix type="matrix" values="0 0 0 0 0 0 0 0 0 0 0 0 0 0 0 0 0 0 0.05 0"/>
<feBlend mode="normal" in2="BackgroundImageFix" result="effect1_dropShadow_16_74"/>
<feBlend mode="normal" in="SourceGraphic" in2="effect1_dropShadow_16_74" result="shape"/>
</filter>
</defs>
</svg>
