<svg width="31" height="40" viewBox="0 0 31 40" fill="none" xmlns="http://www.w3.org/2000/svg">
<g filter="url(#filter0_d_16_75)">
<path d="M13.2495 19.1117C15.1675 19.2764 16.9209 18.9083 18.6161 18.0074C18.6258 18.2205 18.6355 18.3755 18.6355 18.5305C18.6355 22.599 18.6548 26.6578 18.6161 30.7263C18.6064 31.3656 18.4902 32.0631 18.2286 32.6443C17.7346 33.7583 16.7271 34.0876 15.5744 33.9811C14.5282 33.8842 13.8017 33.3127 13.453 32.3343C13.298 31.8984 13.2205 31.4237 13.2205 30.9588C13.2011 27.1324 13.2108 23.3158 13.2108 19.4895C13.2205 19.3829 13.2399 19.2667 13.2495 19.1117Z" fill="#003A9B"/>
<path d="M11.7674 12.1468C11.7674 9.92853 13.5401 8.13645 15.7584 8.13645C17.9476 8.12677 19.7785 9.93821 19.7881 12.1275C19.8075 14.3361 17.9864 16.1572 15.7487 16.1475C13.511 16.1475 11.7674 14.3942 11.7674 12.1468Z" fill="#003A9B"/>
<path d="M2.60364 17.9299C2.78769 16.9224 2.91362 15.9053 3.17516 14.9173C4.29884 10.6163 6.51714 7.01276 10.1885 4.3973C12.6393 2.64397 15.3613 1.79153 18.3836 2.04339C20.6697 2.22744 22.6555 3.10895 24.186 4.88165C24.5057 5.24975 24.7866 5.6566 24.8447 6.35405C24.4379 6.12157 24.1279 5.98595 23.847 5.79221C22.5586 4.93977 21.2315 4.24231 19.7107 3.93233C16.4268 3.26394 13.4336 4.01951 10.6825 5.84065C7.48583 7.95239 5.3644 10.9166 3.98886 14.4523C3.54327 15.605 3.15579 16.7868 2.74894 17.9493C2.71019 17.9396 2.65207 17.9396 2.60364 17.9299Z" fill="#003A9B"/>
</g>
<defs>
<filter id="filter0_d_16_75" x="0.603638" y="0" width="30.2411" height="40" filterUnits="userSpaceOnUse" color-interpolation-filters="sRGB">
<feFlood flood-opacity="0" result="BackgroundImageFix"/>
<feColorMatrix in="SourceAlpha" type="matrix" values="0 0 0 0 0 0 0 0 0 0 0 0 0 0 0 0 0 0 127 0" result="hardAlpha"/>
<feOffset dx="2" dy="2"/>
<feGaussianBlur stdDeviation="2"/>
<feComposite in2="hardAlpha" operator="out"/>
<feColorMatrix type="matrix" values="0 0 0 0 0 0 0 0 0 0 0 0 0 0 0 0 0 0 0.05 0"/>
<feBlend mode="normal" in2="BackgroundImageFix" result="effect1_dropShadow_16_75"/>
<feBlend mode="normal" in="SourceGraphic" in2="effect1_dropShadow_16_75" result="shape"/>
</filter>
</defs>
</svg>
