<svg width="38" height="38" viewBox="0 0 38 38" fill="none" xmlns="http://www.w3.org/2000/svg">
<rect width="38" height="38" rx="19" fill="#E3E1E2"/>
<path d="M18.5625 14.209C15.6875 14.209 13.3965 16.5449 13.3965 19.375C13.3965 22.25 15.6875 24.541 18.5625 24.541C21.3926 24.541 23.7285 22.25 23.7285 19.375C23.7285 16.5449 21.3926 14.209 18.5625 14.209ZM18.5625 22.7441C16.7207 22.7441 15.1934 21.2617 15.1934 19.375C15.1934 17.5332 16.6758 16.0508 18.5625 16.0508C20.4043 16.0508 21.8867 17.5332 21.8867 19.375C21.8867 21.2617 20.4043 22.7441 18.5625 22.7441ZM25.1211 14.0293C25.1211 13.3555 24.582 12.8164 23.9082 12.8164C23.2344 12.8164 22.6953 13.3555 22.6953 14.0293C22.6953 14.7031 23.2344 15.2422 23.9082 15.2422C24.582 15.2422 25.1211 14.7031 25.1211 14.0293ZM28.5352 15.2422C28.4453 13.625 28.0859 12.1875 26.918 11.0195C25.75 9.85156 24.3125 9.49219 22.6953 9.40234C21.0332 9.3125 16.0469 9.3125 14.3848 9.40234C12.7676 9.49219 11.375 9.85156 10.1621 11.0195C8.99414 12.1875 8.63477 13.625 8.54492 15.2422C8.45508 16.9043 8.45508 21.8906 8.54492 23.5527C8.63477 25.1699 8.99414 26.5625 10.1621 27.7754C11.375 28.9434 12.7676 29.3027 14.3848 29.3926C16.0469 29.4824 21.0332 29.4824 22.6953 29.3926C24.3125 29.3027 25.75 28.9434 26.918 27.7754C28.0859 26.5625 28.4453 25.1699 28.5352 23.5527C28.625 21.8906 28.625 16.9043 28.5352 15.2422ZM26.3789 25.3047C26.0645 26.2031 25.3457 26.877 24.4922 27.2363C23.1445 27.7754 20 27.6406 18.5625 27.6406C17.0801 27.6406 13.9355 27.7754 12.6328 27.2363C11.7344 26.877 11.0605 26.2031 10.7012 25.3047C10.1621 24.002 10.2969 20.8574 10.2969 19.375C10.2969 17.9375 10.1621 14.793 10.7012 13.4453C11.0605 12.5918 11.7344 11.918 12.6328 11.5586C13.9355 11.0195 17.0801 11.1543 18.5625 11.1543C20 11.1543 23.1445 11.0195 24.4922 11.5586C25.3457 11.873 26.0195 12.5918 26.3789 13.4453C26.918 14.793 26.7832 17.9375 26.7832 19.375C26.7832 20.8574 26.918 24.002 26.3789 25.3047Z" fill="white"/>
</svg>
