<svg width="175" height="69" viewBox="0 0 175 69" fill="none" xmlns="http://www.w3.org/2000/svg">
<path d="M42.2 19.4396L6.25714 0.482481C3.4 -0.988948 0 1.08248 0 4.29677V24.9253C0 26.9396 1.62857 28.6253 3.62857 28.5968C4.37143 28.5825 5.88571 28.0825 6.81429 27.8253C7.74286 27.5682 8.18571 27.3111 9.98571 26.4539C11.4714 25.7539 12.4429 24.3111 12.6429 22.6825C12.6571 22.5682 12.6714 22.4396 12.7 22.3253C13.1429 20.0682 15.0571 18.3111 17.3429 18.1111C20.6 17.8111 23.3 20.4968 23.0571 23.7396C22.8714 26.2539 20.8429 28.3111 18.3286 28.5539C17.4571 28.6396 16.6286 28.4968 15.8857 28.1968C14.4571 27.611 12.8429 27.6111 11.4714 28.3111C9.1 29.5111 6.38571 30.8253 3.5 32.2253C0.428571 33.8396 0 37.1968 0 37.1968V63.8111C0 66.9968 3.35714 69.0682 6.2 67.6539C6.2 67.6539 38.8571 51.9253 38.0429 52.111C38.3286 51.9539 41.9 50.5539 39.7714 46.4539C39.7143 46.411 36.3714 39.8682 36.3 39.8253C35.4714 38.311 34.4 36.3396 30.5286 38.0825C28.0429 39.6253 22.4571 44.0253 21.1571 44.9539C20.8 45.3396 19.9857 45.9539 20.0286 46.6825C20.1429 48.7682 17.3571 52.2396 14.2 51.8825C11.8 51.6253 9.85714 49.6825 9.6 47.2825C9.25714 44.1253 11.7143 41.4539 14.8 41.4539C15.0571 41.4539 15.3 41.4682 15.5429 41.511C16.0571 41.5825 16.5571 41.7396 17 41.9396C17.9286 42.3682 18.9857 42.411 19.9714 42.1253C21.2 41.7539 22.5571 40.6968 23.3714 40.0825C24.1857 39.4682 39.7857 28.3682 43.2571 24.4396C43.8714 22.0111 43.6571 21.1111 42.2 19.4396Z" fill="url(#paint0_linear_2_81)"/>
<path d="M71.7969 27.8616C71.1464 28.5353 70.3797 29.395 69.4852 30.4637C68.5907 31.5208 67.673 32.6825 66.7204 33.9371C65.7679 35.1917 64.8269 36.4927 63.8976 37.8286C62.9683 39.1646 62.1319 40.4424 61.4116 41.6505H72.1338V45.6234H55.5801V42.8006C56.1493 41.7667 56.8347 40.6166 57.6595 39.3504C58.4842 38.0842 59.3323 36.8064 60.2267 35.5285C61.1212 34.2391 62.0273 32.9961 62.945 31.788C63.8627 30.5799 64.7224 29.5111 65.5123 28.5586H56.068V24.5857H71.7969V27.8616Z" fill="#333333"/>
<path d="M75.1658 45.6234V22.7851L79.6963 22.0532V29.7086C79.9983 29.604 80.3933 29.5111 80.8696 29.4182C81.3458 29.3252 81.8105 29.2788 82.2519 29.2788C83.553 29.2788 84.6217 29.453 85.4814 29.8131C86.341 30.1733 87.0264 30.6728 87.5491 31.3117C88.0603 31.9622 88.432 32.7289 88.6411 33.6234C88.8502 34.5179 88.9547 35.5053 88.9547 36.5973V45.6234H84.4242V37.1549C84.4242 35.7028 84.2384 34.6689 83.8666 34.0532C83.4949 33.4492 82.7979 33.1471 81.7873 33.1471C81.3807 33.1471 80.9973 33.182 80.6488 33.2517C80.2887 33.3214 79.9751 33.4027 79.6963 33.484V45.6234H75.1658Z" fill="#333333"/>
<path d="M106.693 45.0775C105.927 45.2982 104.928 45.5073 103.72 45.7048C102.5 45.9022 101.234 45.9952 99.8976 45.9952C98.5385 45.9952 97.4117 45.8093 96.5172 45.4492C95.6111 45.0891 94.9025 44.5779 94.3797 43.9158C93.857 43.2536 93.4736 42.4753 93.2529 41.5576C93.0322 40.6515 92.916 39.6409 92.916 38.5489V29.6505H97.4465V38.0029C97.4465 39.455 97.644 40.5121 98.0273 41.1626C98.4107 41.8132 99.1309 42.1384 100.188 42.1384C100.513 42.1384 100.862 42.1268 101.222 42.092C101.582 42.0571 101.907 42.0223 102.198 41.9874V29.6505H106.728V45.0775H106.693Z" fill="#333333"/>
<path d="M115.464 35.3891C115.905 34.9012 116.37 34.4017 116.846 33.879C117.323 33.3562 117.787 32.8335 118.229 32.3223C118.67 31.8112 119.088 31.3233 119.483 30.8586C119.878 30.394 120.215 29.999 120.494 29.6505H125.872C124.804 30.8819 123.747 32.0552 122.724 33.182C121.702 34.3088 120.587 35.4588 119.367 36.6554C119.971 37.2013 120.598 37.8519 121.249 38.6186C121.9 39.3736 122.527 40.1636 123.131 40.9767C123.735 41.7899 124.293 42.6031 124.804 43.4046C125.315 44.2178 125.733 44.9613 126.082 45.6234H120.877C120.552 45.1007 120.18 44.5082 119.774 43.8693C119.355 43.2304 118.926 42.5915 118.449 41.9525C117.985 41.3136 117.497 40.6979 116.974 40.1055C116.463 39.513 115.952 39.0251 115.441 38.6186V45.6234H110.91V22.7851L115.441 22.0532V35.3891H115.464Z" fill="#333333"/>
<path d="M142.368 37.6079C142.368 38.8625 142.182 40.0126 141.822 41.0581C141.462 42.1036 140.928 42.9865 140.242 43.7299C139.557 44.4734 138.732 45.0426 137.768 45.4492C136.804 45.8558 135.723 46.0532 134.538 46.0532C133.365 46.0532 132.296 45.8558 131.332 45.4492C130.368 45.0426 129.543 44.4734 128.858 43.7299C128.173 42.9865 127.638 42.1036 127.243 41.0581C126.86 40.0126 126.662 38.8625 126.662 37.6079C126.662 36.3533 126.86 35.2033 127.255 34.181C127.65 33.1588 128.196 32.2643 128.893 31.5441C129.59 30.8122 130.426 30.243 131.379 29.848C132.343 29.4414 133.388 29.244 134.527 29.244C135.677 29.244 136.734 29.4414 137.698 29.848C138.662 30.2546 139.487 30.8238 140.173 31.5441C140.858 32.2759 141.392 33.1588 141.787 34.181C142.182 35.2149 142.368 36.3533 142.368 37.6079ZM137.756 37.6079C137.756 36.2139 137.477 35.1104 136.92 34.3088C136.362 33.5073 135.572 33.1123 134.538 33.1123C133.505 33.1123 132.703 33.5073 132.134 34.3088C131.565 35.1104 131.286 36.2023 131.286 37.6079C131.286 39.0019 131.565 40.1171 132.134 40.9303C132.703 41.7551 133.505 42.1617 134.538 42.1617C135.572 42.1617 136.362 41.7551 136.92 40.9303C137.477 40.1171 137.756 39.0019 137.756 37.6079Z" fill="#333333"/>
<path d="M149.803 45.6234C148.769 43.6021 147.712 41.2323 146.643 38.514C145.574 35.7958 144.564 32.8451 143.611 29.6505H148.409C148.606 30.4405 148.85 31.3001 149.129 32.2178C149.408 33.1355 149.687 34.0649 149.989 35.0174C150.279 35.9584 150.581 36.8761 150.871 37.7706C151.162 38.6651 151.452 39.4666 151.743 40.1985C152.01 39.4666 152.289 38.6651 152.591 37.7706C152.893 36.8761 153.195 35.9584 153.485 35.0174C153.776 34.0765 154.066 33.1472 154.333 32.2178C154.612 31.3001 154.844 30.4405 155.053 29.6505H159.735C158.782 32.8451 157.772 35.8074 156.703 38.514C155.634 41.2323 154.589 43.5905 153.555 45.6234H149.803Z" fill="#333333"/>
<path d="M167.576 29.2323C168.912 29.2323 170.027 29.3833 170.922 29.6854C171.816 29.9874 172.525 30.4288 173.059 30.9864C173.594 31.5557 173.977 32.241 174.198 33.0542C174.418 33.8674 174.535 34.7619 174.535 35.7609V45.1704C173.884 45.3098 172.99 45.484 171.828 45.6699C170.666 45.8558 169.272 45.9603 167.634 45.9603C166.6 45.9603 165.66 45.8674 164.823 45.6815C163.987 45.4956 163.255 45.2052 162.651 44.787C162.047 44.3688 161.582 43.8345 161.257 43.1607C160.932 42.4869 160.769 41.6738 160.769 40.698C160.769 39.7686 160.955 38.9787 161.327 38.3282C161.698 37.6776 162.198 37.1665 162.825 36.7832C163.452 36.3998 164.173 36.121 164.986 35.9468C165.799 35.7725 166.635 35.6912 167.507 35.6912C168.099 35.6912 168.61 35.7144 169.075 35.7725C169.528 35.819 169.9 35.8887 170.178 35.97V35.5402C170.178 34.7735 169.946 34.1578 169.481 33.6931C169.017 33.2285 168.204 32.9961 167.054 32.9961C166.287 32.9961 165.52 33.0542 164.777 33.1588C164.033 33.2749 163.383 33.4259 162.837 33.635L162.256 29.9874C162.523 29.9061 162.848 29.8248 163.243 29.7318C163.638 29.6389 164.068 29.5576 164.533 29.4879C164.997 29.4182 165.485 29.3601 166.008 29.302C166.531 29.2556 167.054 29.2323 167.576 29.2323ZM167.948 42.4637C168.389 42.4637 168.819 42.4521 169.226 42.4288C169.632 42.4056 169.958 42.3824 170.202 42.3359V38.909C170.016 38.8742 169.749 38.8277 169.377 38.7928C169.017 38.758 168.68 38.7348 168.378 38.7348C167.948 38.7348 167.553 38.758 167.181 38.8161C166.81 38.8625 166.473 38.9671 166.194 39.1065C165.915 39.2459 165.683 39.4434 165.52 39.6873C165.358 39.9313 165.276 40.2333 165.276 40.5934C165.276 41.302 165.509 41.7899 165.985 42.0687C166.461 42.3359 167.112 42.4637 167.948 42.4637Z" fill="#333333"/>
<defs>
<linearGradient id="paint0_linear_2_81" x1="-11.9206" y1="23.9544" x2="38.6167" y2="52.8985" gradientUnits="userSpaceOnUse">
<stop stop-color="#40F0B2"/>
<stop offset="0.5" stop-color="#74F5DE"/>
<stop offset="0.9974" stop-color="#2EC4E5"/>
</linearGradient>
</defs>
</svg>
