<svg width="38" height="38" viewBox="0 0 38 38" fill="none" xmlns="http://www.w3.org/2000/svg">
<rect width="38" height="38" rx="19" fill="#E3E1E2"/>
<path d="M28.184 18.432C28.184 19.168 28.096 19.888 27.92 20.592C27.76 21.296 27.504 21.936 27.152 22.512C26.8 23.072 26.368 23.528 25.856 23.88C25.344 24.216 24.736 24.384 24.032 24.384C23.296 24.384 22.712 24.176 22.28 23.76C21.864 23.328 21.608 22.84 21.512 22.296H21.392C21.104 22.888 20.68 23.384 20.12 23.784C19.56 24.184 18.856 24.384 18.008 24.384C16.792 24.384 15.848 23.976 15.176 23.16C14.52 22.344 14.192 21.264 14.192 19.92C14.192 18.864 14.4 17.936 14.816 17.136C15.232 16.32 15.816 15.68 16.568 15.216C17.336 14.752 18.24 14.52 19.28 14.52C19.984 14.52 20.672 14.584 21.344 14.712C22.032 14.824 22.568 14.952 22.952 15.096L22.712 19.968C22.696 20.256 22.688 20.464 22.688 20.592C22.688 20.704 22.688 20.784 22.688 20.832C22.688 21.664 22.832 22.216 23.12 22.488C23.424 22.76 23.776 22.896 24.176 22.896C24.672 22.896 25.088 22.696 25.424 22.296C25.776 21.88 26.04 21.336 26.216 20.664C26.408 19.976 26.504 19.224 26.504 18.408C26.504 16.92 26.2 15.664 25.592 14.64C25 13.6 24.176 12.808 23.12 12.264C22.08 11.72 20.896 11.448 19.568 11.448C18.208 11.448 17 11.664 15.944 12.096C14.888 12.528 14 13.136 13.28 13.92C12.576 14.704 12.04 15.632 11.672 16.704C11.304 17.76 11.12 18.928 11.12 20.208C11.12 21.776 11.4 23.112 11.96 24.216C12.52 25.304 13.336 26.136 14.408 26.712C15.496 27.272 16.824 27.552 18.392 27.552C19.368 27.552 20.296 27.44 21.176 27.216C22.072 27.008 22.864 26.776 23.552 26.52V28.152C22.864 28.44 22.088 28.672 21.224 28.848C20.376 29.04 19.432 29.136 18.392 29.136C16.504 29.136 14.888 28.784 13.544 28.08C12.2 27.376 11.168 26.368 10.448 25.056C9.744 23.728 9.392 22.136 9.392 20.28C9.392 18.792 9.624 17.416 10.088 16.152C10.552 14.872 11.224 13.768 12.104 12.84C12.984 11.896 14.048 11.168 15.296 10.656C16.56 10.128 17.984 9.864 19.568 9.864C20.816 9.864 21.96 10.064 23 10.464C24.056 10.848 24.968 11.416 25.736 12.168C26.52 12.904 27.12 13.8 27.536 14.856C27.968 15.912 28.184 17.104 28.184 18.432ZM16.064 19.968C16.064 20.992 16.264 21.736 16.664 22.2C17.08 22.664 17.632 22.896 18.32 22.896C19.216 22.896 19.856 22.56 20.24 21.888C20.64 21.216 20.872 20.344 20.936 19.272L21.08 16.272C20.872 16.208 20.608 16.152 20.288 16.104C19.968 16.056 19.64 16.032 19.304 16.032C18.52 16.032 17.888 16.224 17.408 16.608C16.928 16.992 16.584 17.488 16.376 18.096C16.168 18.688 16.064 19.312 16.064 19.968Z" fill="white"/>
</svg>
