<svg width="84" height="84" viewBox="0 0 84 84" fill="none" xmlns="http://www.w3.org/2000/svg">
<g filter="url(#filter0_d_33_589)">
<circle cx="38" cy="38" r="32" fill="white"/>
</g>
<g clip-path="url(#clip0_33_589)">
<path d="M29.1556 41.5226C29.1556 43.6786 29.1556 45.7685 29.1556 47.8867C27.772 47.8867 26.4072 47.8867 25.0141 47.8867C25.0094 47.8016 25.0047 47.7212 25.0047 47.6361C25.0047 41.2058 25.0047 34.7803 25 28.35C25 28.1798 25.0094 28.0758 25.2306 28.0758C26.8778 28.0616 28.525 28.0238 30.1675 28.0049C31.344 27.9954 32.5112 28.0616 33.6595 28.3595C36.408 29.064 38.0928 31.1254 38.2387 33.9812C38.3046 35.2578 38.1304 36.4966 37.5516 37.6455C36.7703 39.1964 35.4949 40.2176 33.9183 40.8749C32.69 41.3855 31.3911 41.5084 30.078 41.5273C29.7768 41.5226 29.4756 41.5226 29.1556 41.5226ZM29.165 38.0427C29.8804 38.0143 30.5816 38.0427 31.264 37.9434C32.4265 37.7827 33.3348 37.2011 33.8195 36.0805C34.0878 35.4564 34.1631 34.7992 34.0784 34.1184C33.9748 33.2815 33.6642 32.5581 33.0336 31.9907C32.5818 31.5793 32.0453 31.3098 31.4382 31.2531C30.6852 31.1822 29.9274 31.1727 29.1603 31.1349C29.165 33.4611 29.165 35.7165 29.165 38.0427Z" fill="#37C5FF"/>
<path d="M39.8153 43.4941C40.3283 43.7164 40.813 43.9528 41.3119 44.1466C42.2908 44.5154 43.2932 44.818 44.3568 44.7093C44.7051 44.6714 45.0722 44.5769 45.3828 44.4161C45.9005 44.1419 46.0275 43.461 45.7357 42.8275C45.5004 42.3121 45.0816 41.9811 44.5874 41.7542C44.0838 41.5225 43.5567 41.3428 43.0391 41.1348C42.0696 40.7424 41.1283 40.2979 40.3941 39.513C39.7823 38.8606 39.5658 38.0757 39.6035 37.1915C39.7164 34.8606 41.3872 33.2766 43.5897 32.7518C45.5851 32.279 47.4912 32.5532 49.3172 33.4658C49.3831 33.4989 49.4678 33.5934 49.4678 33.6596C49.4772 34.7234 49.4725 35.7873 49.4725 36.8747C49.0772 36.7045 48.7054 36.5296 48.3242 36.3736C47.5053 36.0473 46.677 35.7636 45.7875 35.7258C45.2934 35.7022 44.7992 35.7542 44.3756 36.0662C43.8627 36.4445 43.7968 37.2104 44.2815 37.6218C44.5639 37.8582 44.9074 38.0379 45.2463 38.1892C45.8534 38.4539 46.4887 38.662 47.1006 38.922C47.9571 39.2908 48.7477 39.7636 49.3501 40.5012C50.0608 41.3712 50.2961 42.383 50.2349 43.4799C50.122 45.6171 48.7242 47.1395 46.5876 47.7069C44.5404 48.2506 42.5496 48.0284 40.6248 47.1679C40.3471 47.045 39.9941 46.9551 39.8388 46.7329C39.7023 46.5438 39.7964 46.1844 39.7964 45.9055C39.7964 45.1821 39.7964 44.4539 39.7964 43.7305C39.8153 43.6502 39.8153 43.5745 39.8153 43.4941Z" fill="#37C5FF"/>
</g>
<defs>
<filter id="filter0_d_33_589" x="0" y="0" width="84" height="84" filterUnits="userSpaceOnUse" color-interpolation-filters="sRGB">
<feFlood flood-opacity="0" result="BackgroundImageFix"/>
<feColorMatrix in="SourceAlpha" type="matrix" values="0 0 0 0 0 0 0 0 0 0 0 0 0 0 0 0 0 0 127 0" result="hardAlpha"/>
<feOffset dx="4" dy="4"/>
<feGaussianBlur stdDeviation="5"/>
<feComposite in2="hardAlpha" operator="out"/>
<feColorMatrix type="matrix" values="0 0 0 0 0 0 0 0 0 0 0 0 0 0 0 0 0 0 0.15 0"/>
<feBlend mode="normal" in2="BackgroundImageFix" result="effect1_dropShadow_33_589"/>
<feBlend mode="normal" in="SourceGraphic" in2="effect1_dropShadow_33_589" result="shape"/>
</filter>
<clipPath id="clip0_33_589">
<rect width="25.2632" height="20" fill="white" transform="translate(25 28)"/>
</clipPath>
</defs>
</svg>
