<svg width="84" height="84" viewBox="0 0 84 84" fill="none" xmlns="http://www.w3.org/2000/svg">
<g filter="url(#filter0_d_7_639)">
<circle cx="38" cy="38" r="32" fill="white"/>
</g>
<g clip-path="url(#clip0_7_639)">
<path d="M54.1643 42.1074C53.8157 42.8405 53.4804 43.5825 53.0334 44.2709C52.3629 45.308 51.6119 46.2736 50.6195 47.0335C50.4809 47.1408 50.3692 47.2793 50.244 47.409C49.5154 47.8962 48.8001 48.4058 48 48.7813C46.6545 49.4116 45.2553 49.8363 43.7667 49.957C43.6058 49.9704 43.4449 50.0106 43.284 50.0374C42.0323 50.0196 40.7852 50.0106 39.5335 50.0464C39.3547 50.0374 39.1759 50.024 38.9971 50.024C36.6592 50.0196 34.3168 50.0106 31.9789 50.024C30.9463 50.0285 29.9271 49.9391 28.9258 49.6798C28.8543 49.6619 28.7783 49.6664 28.7023 49.6575C28.6129 49.5725 28.4967 49.577 28.3849 49.5725C28.3313 49.501 28.2508 49.4831 28.1704 49.4876C27.6161 49.2462 27.0573 49.0048 26.503 48.7634C26.4762 48.7143 26.436 48.6919 26.3778 48.6874L26.36 48.6696H26.3331C26.3018 48.6204 26.2616 48.5936 26.199 48.607C25.6045 48.2136 25.0368 47.7889 24.5048 47.3106C23.4856 46.3943 22.6676 45.3259 22.0597 44.0921C22.0194 44.0161 22.0016 43.9223 21.9166 43.8731C21.5635 42.8986 21.2193 41.9241 21.0852 40.887C20.8751 39.2375 21.0047 37.6283 21.5233 36.0458C21.8317 35.0937 22.2966 34.222 22.8509 33.395C22.909 33.3101 22.985 33.2341 23.0029 33.1268C23.6645 32.2417 24.4646 31.4908 25.3095 30.7889C25.5106 30.6191 25.752 30.5073 25.9755 30.3688C27.549 29.3808 29.2745 28.8757 31.1162 28.7416C31.8001 28.755 32.4841 28.764 33.1591 28.8891C33.3423 28.9249 33.4362 28.8176 33.539 28.7148C33.8877 28.3661 34.2543 28.0443 34.6387 27.7358C34.9292 27.5079 35.2198 27.2799 35.5148 27.0519C36.3508 26.5646 37.1956 26.0953 38.112 25.769C40.137 25.0448 42.1977 24.8213 44.3166 25.1431C44.4194 25.1566 44.5222 25.1521 44.625 25.1566C45.0452 25.2504 45.4609 25.3443 45.8811 25.4382C46.498 25.693 47.1417 25.8762 47.7452 26.1668C50.463 27.4676 52.4835 29.4658 53.8067 32.1747C53.9185 32.3982 53.9498 32.6575 54.1196 32.8542C54.4906 33.8778 54.7589 34.9283 54.9198 36.0011C54.9064 36.18 54.8885 36.3543 54.9779 36.5197C55.0494 37.9948 54.9332 39.4521 54.5488 40.8826C54.437 41.2983 54.2224 41.6782 54.1643 42.1074ZM51.3526 32.6619C51.3526 32.5904 51.3258 32.5278 51.2632 32.4831C50.7983 31.5176 50.0786 30.7487 49.3231 30.0111C48.7152 29.4166 48.0134 28.9472 47.2669 28.5449C46.8377 28.3125 46.3818 28.1381 45.9258 27.9638C45.4118 27.7627 44.9022 27.5928 44.3568 27.5123C44.2987 27.5034 44.2451 27.4944 44.1869 27.4855C44.0797 27.3961 43.95 27.4095 43.8249 27.4184C43.7667 27.414 43.7042 27.405 43.6461 27.4006C43.3868 27.2933 43.1141 27.3112 42.8459 27.3246C42.1664 27.262 41.487 27.2933 40.812 27.4095C39.9045 27.5615 39.0194 27.7805 38.1969 28.2052C37.5175 28.4153 36.9453 28.8176 36.3686 29.2065C36.2032 29.3183 36.0155 29.4166 35.8993 29.5954C36.0021 29.7385 36.1541 29.7698 36.2837 29.8368C36.6681 30.038 37.0392 30.2525 37.3968 30.4984C38.0226 30.9275 38.0226 30.9275 38.6439 30.485C38.6574 30.476 38.6618 30.4626 38.6708 30.4492C38.8004 30.3598 38.93 30.2659 39.0865 30.2346C39.2385 30.257 39.3592 30.1899 39.4575 30.0871C39.4933 30.0603 39.5246 30.0201 39.5648 30.0111C40.4678 29.7742 41.3707 29.5597 42.3095 29.5239C43.2303 29.5552 44.1288 29.7072 45.0094 29.9843C45.1301 30.0961 45.2687 30.1497 45.4296 30.1542C46.422 30.6057 47.3116 31.2091 48.067 32.0004C48.6884 32.6485 49.1488 33.404 49.5601 34.1952C49.5779 34.2667 49.5914 34.3382 49.6182 34.4053C50.3468 36.2291 50.4049 38.0753 49.8059 39.9438C49.6942 40.297 49.5377 40.6322 49.4036 40.9764C49.35 41.0658 49.2874 41.1508 49.2382 41.2402C48.5498 42.4561 47.6066 43.4216 46.4265 44.1637C45.8811 44.5034 45.2821 44.7224 44.7144 45.0085C44.6116 45.0264 44.5088 45.0443 44.4104 45.0666C43.1856 45.3795 41.9519 45.4466 40.7047 45.1918C40.0878 45.0666 39.5112 44.8386 38.9256 44.6285C38.8943 44.6017 38.863 44.5615 38.8272 44.5436C38.0181 44.1189 37.294 43.5825 36.6547 42.9344C36.6145 42.8941 36.5519 42.8807 36.4983 42.8584C36.4089 42.7779 36.3105 42.7109 36.239 42.6214C35.5327 41.7587 34.7102 41.0211 33.9145 40.2478C33.9011 40.221 33.8966 40.1897 33.8743 40.1673C33.2127 39.5057 32.5556 38.8352 31.8806 38.1915C31.5409 37.8652 30.9866 37.8741 30.6021 38.1647C30.0612 38.576 29.878 39.4029 30.477 39.993C31.1788 40.6814 31.8672 41.3787 32.5645 42.0716C32.8059 42.313 32.9981 42.5991 33.3021 42.7734C33.9771 43.5244 34.7013 44.2307 35.4388 44.9191C36.0289 45.4689 36.6592 45.9607 37.361 46.3585C38.3221 46.9083 39.3279 47.3241 40.432 47.4894C40.8164 47.6191 41.2188 47.6414 41.6166 47.6772C43.1543 47.8068 44.6384 47.5744 46.0733 47.0156C46.2119 46.962 46.3639 46.9351 46.4667 46.8189C46.5785 46.8279 46.6679 46.7742 46.7617 46.7295C47.5843 46.3674 48.3352 45.8891 49.0236 45.317C49.502 44.9191 49.9177 44.4587 50.32 43.9759C50.9548 43.216 51.4867 42.4069 51.8175 41.4726V41.4592C51.9024 41.3832 51.9516 41.2893 51.9427 41.1686C51.9784 41.0882 52.0231 41.0077 52.0499 40.9273C52.7115 39.0543 52.8188 37.15 52.3673 35.2189C52.2019 34.5126 52.0008 33.8108 51.6163 33.1805C51.6208 33.1537 51.6119 33.1313 51.5895 33.1179C51.594 33.0687 51.5761 33.033 51.5269 33.0106C51.5135 32.9838 51.5046 32.957 51.4912 32.9302C51.5001 32.8854 51.4822 32.8497 51.442 32.8318C51.4465 32.8005 51.4331 32.7737 51.4107 32.7558C51.4196 32.7066 51.4018 32.6709 51.3526 32.6619ZM25.3721 44.6688C25.7118 45.165 26.1677 45.5494 26.6326 45.9204C28.0318 47.0514 29.6276 47.6683 31.4336 47.6951C32.6226 47.713 33.8117 47.6951 35.0052 47.6906C35.1125 47.6906 35.2287 47.7174 35.3629 47.6414C34.6119 47.1095 33.9816 46.4926 33.3781 45.8578C33.0294 45.4913 32.6629 45.3482 32.1622 45.3795C31.3844 45.4332 30.62 45.3393 29.878 45.0934C29.0733 44.8297 28.3894 44.3559 27.7368 43.8373C27.0975 43.131 26.4941 42.4113 26.1856 41.4816C25.5911 39.7024 25.7252 37.9993 26.6684 36.3677C27.0394 35.7285 27.5401 35.2055 28.0854 34.7182C28.2017 34.6735 28.2911 34.5886 28.376 34.4992C28.4028 34.4902 28.4296 34.4768 28.4475 34.4545C28.528 34.4142 28.6084 34.374 28.68 34.3293C29.8914 33.5694 31.228 33.3191 32.6226 33.4979C33.843 33.6543 34.9382 34.1594 35.8322 35.0356C37.0123 36.1934 38.1746 37.369 39.3413 38.5402C39.8822 39.0811 40.7002 38.9872 41.0847 38.3301C41.3663 37.8473 41.3171 37.3064 40.9103 36.8952C40.4186 36.399 39.9135 35.9162 39.4173 35.429C38.8898 34.9104 38.3668 34.3785 37.8661 33.8287C37.1777 33.0821 36.3999 32.4742 35.5104 31.978C34.1827 31.236 32.7478 30.9767 31.2592 31.0214C30.3831 31.0482 29.5293 31.2404 28.7023 31.5712C27.7815 31.9378 26.9366 32.4206 26.2124 33.1C25.5777 33.6275 25.0279 34.231 24.6077 34.9373C23.3113 37.0919 23.0118 39.3851 23.7539 41.79C24.0668 42.8628 24.5898 43.8463 25.3721 44.6688Z" fill="#DA0A0A"/>
</g>
<defs>
<filter id="filter0_d_7_639" x="0" y="0" width="84" height="84" filterUnits="userSpaceOnUse" color-interpolation-filters="sRGB">
<feFlood flood-opacity="0" result="BackgroundImageFix"/>
<feColorMatrix in="SourceAlpha" type="matrix" values="0 0 0 0 0 0 0 0 0 0 0 0 0 0 0 0 0 0 127 0" result="hardAlpha"/>
<feOffset dx="4" dy="4"/>
<feGaussianBlur stdDeviation="5"/>
<feComposite in2="hardAlpha" operator="out"/>
<feColorMatrix type="matrix" values="0 0 0 0 0 0 0 0 0 0.266667 0 0 0 0 0.380392 0 0 0 0.15 0"/>
<feBlend mode="normal" in2="BackgroundImageFix" result="effect1_dropShadow_7_639"/>
<feBlend mode="normal" in="SourceGraphic" in2="effect1_dropShadow_7_639" result="shape"/>
</filter>
<clipPath id="clip0_7_639">
<rect width="34" height="25.0418" fill="white" transform="translate(21 25)"/>
</clipPath>
</defs>
</svg>
