<svg width="44" height="30" viewBox="0 0 44 30" fill="none" xmlns="http://www.w3.org/2000/svg">
<path d="M38.6401 27.1476C37.1626 27.9674 35.569 28.3012 33.8831 28.17C30.4608 27.8982 27.9423 26.3193 26.3245 23.2897C25.3271 21.419 24.9483 19.39 25.0193 17.2212L25.0193 17.2206C25.1666 12.6444 26.9775 8.87124 30.3933 5.8366L30.3935 5.83643C32.8354 3.66587 35.7206 2.31664 38.9448 1.59639L38.9469 1.59592C39.5647 1.45654 40.1916 1.36184 40.852 1.26683C40.8765 1.41614 40.901 1.56577 40.9256 1.71563C41.0044 2.19609 41.0836 2.67888 41.1646 3.16096C41.1383 3.16999 41.1118 3.17907 41.0852 3.1882C40.6371 3.3418 40.1485 3.50929 39.6883 3.70426L39.688 3.70439C36.8105 4.92481 34.9707 7.10675 34.1432 10.0795C34.1093 10.1879 34.0979 10.2781 34.093 10.3195C34.0905 10.3403 34.0882 10.3632 34.087 10.3753C34.0868 10.3772 34.0866 10.3789 34.0865 10.3803C34.0851 10.3941 34.0841 10.4032 34.083 10.412L33.9594 11.4012L34.9481 11.5279C35.0683 11.5433 35.1816 11.5573 35.2904 11.5706C35.5602 11.6038 35.8021 11.6335 36.0517 11.6739C37.8918 11.9858 39.4424 12.8181 40.7383 14.1682C41.7452 15.2202 42.4157 16.4491 42.7577 17.8611C43.2096 19.751 43.0301 21.5678 42.2127 23.3291C41.4413 24.9889 40.2496 26.2544 38.6401 27.1476ZM38.6401 27.1476L39.1253 28.022M38.6401 27.1476L39.1253 28.022M39.1253 28.022C40.9157 27.0284 42.2573 25.6061 43.1197 23.7501L25.4421 23.7602C27.2275 27.1041 30.057 28.8693 33.8043 29.1669C35.6805 29.3132 37.471 28.9399 39.1253 28.022ZM41.2436 3.63124C41.2433 3.63104 41.2426 3.62647 41.2421 3.61811C41.2435 3.62726 41.2438 3.63144 41.2436 3.63124Z" stroke="#46D3C5" stroke-width="2"/>
<path d="M10.0579 10.5464L10.058 10.5473V11.4227L10.9382 11.529C11.0878 11.547 11.2084 11.5591 11.3172 11.5701C11.4751 11.586 11.6082 11.5993 11.7695 11.6248L11.7695 11.6248L11.7768 11.6259C14.8054 12.0814 16.939 13.649 18.2371 16.4172C18.8554 17.7441 19.0885 19.157 18.9445 20.6104C18.6906 23.1521 17.5257 25.1611 15.4402 26.6481L15.4398 26.6484C13.7866 27.8286 11.9296 28.323 9.90931 28.1603C6.20482 27.8521 3.60258 26.0306 2.02333 22.6465L2.02327 22.6463C1.27935 21.0529 0.969443 19.3562 1.00236 17.56L1.00237 17.5591C1.08329 12.9233 2.83549 9.07234 6.24614 5.94751L6.24677 5.94693C8.38394 3.98548 10.9168 2.68183 13.7464 1.88027L13.748 1.8798C14.774 1.58727 15.8104 1.37044 16.8612 1.24089C16.9061 1.54119 16.9512 1.84119 16.9963 2.14045L16.9964 2.14129C17.0466 2.4745 17.0966 2.8068 17.1461 3.13877C15.7101 3.59585 14.3085 4.24154 13.0738 5.27576L13.0719 5.27738C11.5257 6.57913 10.593 8.24767 10.1035 10.1214C10.0518 10.2903 10.0534 10.4305 10.0553 10.4914C10.0558 10.5101 10.0567 10.526 10.0572 10.5349L10.0579 10.5464Z" stroke="#46D3C5" stroke-width="2"/>
</svg>
