<svg width="55" height="43" viewBox="0 0 55 43" fill="none" xmlns="http://www.w3.org/2000/svg">
<path d="M31.867 32.5012C22.2941 32.5012 12.7846 32.5012 3.19067 32.5012C3.19067 32.079 3.19067 31.699 3.19067 31.319C3.19067 23.0226 3.19067 14.7262 3.19067 6.4298C3.19067 2.73547 5.00403 0.898865 8.67291 0.898865C20.8814 0.898865 33.111 0.898865 45.3195 0.898865C49.2625 0.898865 51.2024 3.11546 50.7596 7.23199C50.4011 7.23199 50.0216 7.23199 49.6421 7.23199C45.9943 7.23199 42.3465 7.23199 38.6776 7.23199C34.4605 7.2531 31.867 9.8708 31.867 14.0929C31.867 19.8138 31.867 25.5558 31.867 31.2768C31.867 31.6779 31.867 32.0579 31.867 32.5012Z" fill="#00B2D9"/>
<path d="M31.867 32.5012C22.2941 32.5012 12.7846 32.5012 3.19067 32.5012C3.19067 32.079 3.19067 31.699 3.19067 31.319C3.19067 23.0226 3.19067 14.7262 3.19067 6.4298C3.19067 2.73547 5.00403 0.898865 8.67291 0.898865C20.8814 0.898865 33.111 0.898865 45.3195 0.898865C49.2625 0.898865 51.2024 3.11546 50.7596 7.23199C50.4011 7.23199 50.0216 7.23199 49.6421 7.23199C45.9943 7.23199 42.3465 7.23199 38.6776 7.23199C34.4605 7.2531 31.867 9.8708 31.867 14.0929C31.867 19.8138 31.867 25.5558 31.867 31.2768C31.867 31.6779 31.867 32.0579 31.867 32.5012Z" fill="url(#paint0_linear_26_62)" fill-opacity="0.2"/>
<path d="M54.0061 26.2947C54.0061 30.3479 54.0061 34.38 54.0061 38.4332C54.0061 40.8398 52.8042 42.0642 50.3794 42.0853C46.4364 42.1064 42.5145 42.1064 38.5715 42.0853C36.231 42.0642 35.0081 40.8187 35.0081 38.4754C35.0081 30.3268 35.0081 22.1571 35.0081 14.0084C35.0081 11.6652 36.231 10.4408 38.5715 10.4197C42.5356 10.3986 46.4997 10.3986 50.4848 10.4197C52.7621 10.4408 53.985 11.6863 53.985 13.9662C54.0061 18.0616 54.0061 22.1782 54.0061 26.2947ZM44.5176 37.3144C45.0869 37.3144 45.6352 37.3566 46.2045 37.3144C47.0901 37.2299 47.7437 36.5333 47.6805 35.71C47.6172 34.8233 47.1111 34.2533 46.2256 34.2111C45.108 34.1478 43.9905 34.1478 42.873 34.2111C41.9874 34.2533 41.3337 34.9922 41.397 35.8155C41.4602 36.7022 41.9874 37.2299 42.8519 37.3355C43.379 37.3566 43.9483 37.3144 44.5176 37.3144ZM44.5387 15.1695C43.7164 15.1484 42.9995 15.8239 42.9573 16.6684C42.9151 17.555 43.6109 18.2939 44.4965 18.315C45.34 18.3361 46.0358 17.6605 46.078 16.8161C46.1201 15.9295 45.4032 15.1695 44.5387 15.1695Z" fill="#00B2D9"/>
<path d="M54.0061 26.2947C54.0061 30.3479 54.0061 34.38 54.0061 38.4332C54.0061 40.8398 52.8042 42.0642 50.3794 42.0853C46.4364 42.1064 42.5145 42.1064 38.5715 42.0853C36.231 42.0642 35.0081 40.8187 35.0081 38.4754C35.0081 30.3268 35.0081 22.1571 35.0081 14.0084C35.0081 11.6652 36.231 10.4408 38.5715 10.4197C42.5356 10.3986 46.4997 10.3986 50.4848 10.4197C52.7621 10.4408 53.985 11.6863 53.985 13.9662C54.0061 18.0616 54.0061 22.1782 54.0061 26.2947ZM44.5176 37.3144C45.0869 37.3144 45.6352 37.3566 46.2045 37.3144C47.0901 37.2299 47.7437 36.5333 47.6805 35.71C47.6172 34.8233 47.1111 34.2533 46.2256 34.2111C45.108 34.1478 43.9905 34.1478 42.873 34.2111C41.9874 34.2533 41.3337 34.9922 41.397 35.8155C41.4602 36.7022 41.9874 37.2299 42.8519 37.3355C43.379 37.3566 43.9483 37.3144 44.5176 37.3144ZM44.5387 15.1695C43.7164 15.1484 42.9995 15.8239 42.9573 16.6684C42.9151 17.555 43.6109 18.2939 44.4965 18.315C45.34 18.3361 46.0358 17.6605 46.078 16.8161C46.1201 15.9295 45.4032 15.1695 44.5387 15.1695Z" fill="url(#paint1_linear_26_62)" fill-opacity="0.2"/>
<path d="M31.6983 35.7733C31.9092 37.9054 32.0989 39.9109 32.3098 42.022C32.2255 42.022 31.867 42.0642 31.4875 42.0642C22.3153 42.0642 13.1431 42.022 3.97087 42.0853C0.154389 42.1064 -0.267321 39.5521 0.112218 36.9555C0.175474 36.5122 0.850211 36.1111 1.31409 35.7944C1.54603 35.6466 1.92557 35.71 2.24185 35.71C11.7725 35.71 21.2821 35.71 30.8127 35.71C31.129 35.7311 31.4242 35.7733 31.6983 35.7733Z" fill="#00B2D9"/>
<path d="M31.6983 35.7733C31.9092 37.9054 32.0989 39.9109 32.3098 42.022C32.2255 42.022 31.867 42.0642 31.4875 42.0642C22.3153 42.0642 13.1431 42.022 3.97087 42.0853C0.154389 42.1064 -0.267321 39.5521 0.112218 36.9555C0.175474 36.5122 0.850211 36.1111 1.31409 35.7944C1.54603 35.6466 1.92557 35.71 2.24185 35.71C11.7725 35.71 21.2821 35.71 30.8127 35.71C31.129 35.7311 31.4242 35.7733 31.6983 35.7733Z" fill="url(#paint2_linear_26_62)" fill-opacity="0.2"/>
<defs>
<linearGradient id="paint0_linear_26_62" x1="27.0061" y1="0.898865" x2="27.0061" y2="32.5012" gradientUnits="userSpaceOnUse">
<stop stop-color="white"/>
<stop offset="1" stop-color="white" stop-opacity="0"/>
</linearGradient>
<linearGradient id="paint1_linear_26_62" x1="44.5071" y1="10.4038" x2="44.5071" y2="42.1011" gradientUnits="userSpaceOnUse">
<stop stop-color="white"/>
<stop offset="1" stop-color="white" stop-opacity="0"/>
</linearGradient>
<linearGradient id="paint2_linear_26_62" x1="16.155" y1="35.6965" x2="16.155" y2="42.0854" gradientUnits="userSpaceOnUse">
<stop stop-color="white"/>
<stop offset="1" stop-color="white" stop-opacity="0"/>
</linearGradient>
</defs>
</svg>
