<svg width="55" height="55" viewBox="0 0 55 55" fill="none" xmlns="http://www.w3.org/2000/svg">
<path d="M1.60001 38.8781C1.60001 38.4563 1.60001 38.0766 1.60001 37.6969C1.60001 31.411 1.60001 25.1039 1.60001 18.818C1.60001 15.3797 3.18204 13.7766 6.62032 13.7766C13.3281 13.7766 20.0359 13.7766 26.7649 13.7766C26.2586 14.9789 25.7734 16.1602 25.2461 17.3203C25.1828 17.4891 24.8453 17.5524 24.6344 17.6156C19.8461 18.8602 17.3359 22.0664 17.3781 27.0024C17.3992 28.6688 17.2727 30.2508 16.3234 31.7274C15.4375 33.1406 15.8805 34.9336 17.0828 36.0516C18.2641 37.1485 20.0992 37.4016 21.4703 36.4735C22.5883 35.7141 23.7906 35.5664 25.0563 35.5031C26.343 35.4399 27.693 35.482 28.9164 35.1656C32.3758 34.3008 34.4008 31.9172 35.2234 28.5C35.3711 27.8883 35.6242 27.6352 36.1938 27.4664C37.8602 26.9813 39.2313 26.032 40.3281 24.682C41.8258 22.868 43.3023 21.0328 44.8 19.2188C45.0109 18.9656 45.243 18.7125 45.6016 18.3117C45.6016 25.2727 45.6016 32.0227 45.6016 38.857C30.9414 38.8781 16.3445 38.8781 1.60001 38.8781Z" fill="#41E3AA"/>
<path d="M1.60001 38.8781C1.60001 38.4563 1.60001 38.0766 1.60001 37.6969C1.60001 31.411 1.60001 25.1039 1.60001 18.818C1.60001 15.3797 3.18204 13.7766 6.62032 13.7766C13.3281 13.7766 20.0359 13.7766 26.7649 13.7766C26.2586 14.9789 25.7734 16.1602 25.2461 17.3203C25.1828 17.4891 24.8453 17.5524 24.6344 17.6156C19.8461 18.8602 17.3359 22.0664 17.3781 27.0024C17.3992 28.6688 17.2727 30.2508 16.3234 31.7274C15.4375 33.1406 15.8805 34.9336 17.0828 36.0516C18.2641 37.1485 20.0992 37.4016 21.4703 36.4735C22.5883 35.7141 23.7906 35.5664 25.0563 35.5031C26.343 35.4399 27.693 35.482 28.9164 35.1656C32.3758 34.3008 34.4008 31.9172 35.2234 28.5C35.3711 27.8883 35.6242 27.6352 36.1938 27.4664C37.8602 26.9813 39.2313 26.032 40.3281 24.682C41.8258 22.868 43.3023 21.0328 44.8 19.2188C45.0109 18.9656 45.243 18.7125 45.6016 18.3117C45.6016 25.2727 45.6016 32.0227 45.6016 38.857C30.9414 38.8781 16.3445 38.8781 1.60001 38.8781Z" fill="url(#paint0_linear_26_88)" fill-opacity="0.2"/>
<path d="M17.7578 51.3234C17.7578 50.0789 17.7578 48.9609 17.7578 47.7164C17.3359 47.7164 16.9563 47.7164 16.5766 47.7164C13.0961 47.7164 9.61563 47.7375 6.13516 47.7164C2.99219 47.6953 1.09375 45.3328 1.72656 42.1688C16.3234 42.1688 30.9203 42.1688 45.5172 42.1688C46.1289 45.375 44.2727 47.6953 41.1086 47.7164C37.6281 47.7375 34.1477 47.7164 30.6672 47.7164C30.2875 47.7164 29.9078 47.7164 29.4859 47.7164C29.4859 48.9399 29.4859 50.0578 29.4859 51.3234C30.3086 51.3234 31.0891 51.3024 31.8906 51.3234C32.9664 51.3445 33.6414 51.9563 33.6836 52.8633C33.7047 53.8125 33.0086 54.4875 31.8906 54.4875C26.4063 54.5086 20.9219 54.4875 15.4375 54.4875C14.3195 54.4875 13.5813 53.8336 13.6023 52.8844C13.6234 51.9563 14.3406 51.3445 15.4797 51.3234C16.1969 51.3024 16.9141 51.3234 17.7578 51.3234Z" fill="#41E3AA"/>
<path d="M17.7578 51.3234C17.7578 50.0789 17.7578 48.9609 17.7578 47.7164C17.3359 47.7164 16.9563 47.7164 16.5766 47.7164C13.0961 47.7164 9.61563 47.7375 6.13516 47.7164C2.99219 47.6953 1.09375 45.3328 1.72656 42.1688C16.3234 42.1688 30.9203 42.1688 45.5172 42.1688C46.1289 45.375 44.2727 47.6953 41.1086 47.7164C37.6281 47.7375 34.1477 47.7164 30.6672 47.7164C30.2875 47.7164 29.9078 47.7164 29.4859 47.7164C29.4859 48.9399 29.4859 50.0578 29.4859 51.3234C30.3086 51.3234 31.0891 51.3024 31.8906 51.3234C32.9664 51.3445 33.6414 51.9563 33.6836 52.8633C33.7047 53.8125 33.0086 54.4875 31.8906 54.4875C26.4063 54.5086 20.9219 54.4875 15.4375 54.4875C14.3195 54.4875 13.5813 53.8336 13.6023 52.8844C13.6234 51.9563 14.3406 51.3445 15.4797 51.3234C16.1969 51.3024 16.9141 51.3234 17.7578 51.3234Z" fill="url(#paint1_linear_26_88)" fill-opacity="0.2"/>
<path d="M41.9945 17.6789C39.7164 15.4219 37.5438 13.2492 35.1602 10.8656C35.35 10.7602 35.6242 10.6547 35.8141 10.486C39.4844 7.49065 43.1547 4.49533 46.825 1.50002C48.4281 0.192209 50.1789 0.171115 51.4656 1.43674C52.7313 2.70236 52.7523 4.49533 51.4656 6.07736C48.3227 9.93752 45.1797 13.7766 41.9945 17.6789Z" fill="#41E3AA"/>
<path d="M41.9945 17.6789C39.7164 15.4219 37.5438 13.2492 35.1602 10.8656C35.35 10.7602 35.6242 10.6547 35.8141 10.486C39.4844 7.49065 43.1547 4.49533 46.825 1.50002C48.4281 0.192209 50.1789 0.171115 51.4656 1.43674C52.7313 2.70236 52.7523 4.49533 51.4656 6.07736C48.3227 9.93752 45.1797 13.7766 41.9945 17.6789Z" fill="url(#paint2_linear_26_88)" fill-opacity="0.2"/>
<path d="M20.4789 27.7828C20.5844 26.8125 20.5844 25.8211 20.8164 24.8719C21.4703 22.0453 24.2125 20.2524 27.1024 20.6532C30.2875 21.0961 32.418 23.6696 32.3125 26.8758C32.207 29.85 29.9711 32.1071 26.9125 32.318C26.2164 32.3602 25.4992 32.318 24.8031 32.3391C23.1367 32.3813 21.5336 32.6344 20.0781 33.5836C19.8672 33.7313 19.5297 33.6469 19.2344 33.668C19.2555 33.3938 19.1922 33.0352 19.3188 32.8242C20.3524 31.3055 20.5633 29.5758 20.4789 27.7828Z" fill="#41E3AA"/>
<path d="M20.4789 27.7828C20.5844 26.8125 20.5844 25.8211 20.8164 24.8719C21.4703 22.0453 24.2125 20.2524 27.1024 20.6532C30.2875 21.0961 32.418 23.6696 32.3125 26.8758C32.207 29.85 29.9711 32.1071 26.9125 32.318C26.2164 32.3602 25.4992 32.318 24.8031 32.3391C23.1367 32.3813 21.5336 32.6344 20.0781 33.5836C19.8672 33.7313 19.5297 33.6469 19.2344 33.668C19.2555 33.3938 19.1922 33.0352 19.3188 32.8242C20.3524 31.3055 20.5633 29.5758 20.4789 27.7828Z" fill="url(#paint3_linear_26_88)" fill-opacity="0.2"/>
<path d="M28.5367 17.6578C29.1484 15.3797 31.1524 14.4516 32.5867 13.1227C35.0125 15.5485 37.3539 17.8899 39.8008 20.3367C38.5563 21.7711 37.607 23.7117 35.3078 24.4078C34.2531 20.9696 32.0383 18.6703 28.5367 17.6578Z" fill="#41E3AA"/>
<path d="M28.5367 17.6578C29.1484 15.3797 31.1524 14.4516 32.5867 13.1227C35.0125 15.5485 37.3539 17.8899 39.8008 20.3367C38.5563 21.7711 37.607 23.7117 35.3078 24.4078C34.2531 20.9696 32.0383 18.6703 28.5367 17.6578Z" fill="url(#paint4_linear_26_88)" fill-opacity="0.2"/>
<defs>
<linearGradient id="paint0_linear_26_88" x1="23.6008" y1="13.7766" x2="23.6008" y2="38.8781" gradientUnits="userSpaceOnUse">
<stop stop-color="white"/>
<stop offset="1" stop-color="white" stop-opacity="0"/>
</linearGradient>
<linearGradient id="paint1_linear_26_88" x1="23.6192" y1="42.1688" x2="23.6192" y2="54.4969" gradientUnits="userSpaceOnUse">
<stop stop-color="white"/>
<stop offset="1" stop-color="white" stop-opacity="0"/>
</linearGradient>
<linearGradient id="paint2_linear_26_88" x1="43.7915" y1="0.503082" x2="43.7915" y2="17.6789" gradientUnits="userSpaceOnUse">
<stop stop-color="white"/>
<stop offset="1" stop-color="white" stop-opacity="0"/>
</linearGradient>
<linearGradient id="paint3_linear_26_88" x1="25.7753" y1="20.5973" x2="25.7753" y2="33.6733" gradientUnits="userSpaceOnUse">
<stop stop-color="white"/>
<stop offset="1" stop-color="white" stop-opacity="0"/>
</linearGradient>
<linearGradient id="paint4_linear_26_88" x1="34.1688" y1="13.1227" x2="34.1688" y2="24.4078" gradientUnits="userSpaceOnUse">
<stop stop-color="white"/>
<stop offset="1" stop-color="white" stop-opacity="0"/>
</linearGradient>
</defs>
</svg>
