<svg width="43" height="42" viewBox="0 0 43 42" fill="none" xmlns="http://www.w3.org/2000/svg">
<path d="M19.2443 28.0483C19.2443 31.5415 19.2443 35.051 19.2443 38.5442C19.2443 40.8074 18.0471 41.9882 15.8167 41.9882C11.684 41.9882 7.56762 41.9882 3.43486 41.9882C1.25368 41.9882 0.0072937 40.7582 0.0072937 38.5934C0.0072937 31.5087 0.0072937 24.4403 0.0072937 17.3556C0.0072937 15.2564 1.27008 13.9936 3.36926 13.9936C7.55122 13.9772 11.7332 13.9772 15.9151 13.9936C17.9979 13.9936 19.2279 15.24 19.2443 17.3064C19.2607 20.898 19.2443 24.4731 19.2443 28.0483Z" fill="#46D3C5"/>
<path d="M19.2443 28.0483C19.2443 31.5415 19.2443 35.051 19.2443 38.5442C19.2443 40.8074 18.0471 41.9882 15.8167 41.9882C11.684 41.9882 7.56762 41.9882 3.43486 41.9882C1.25368 41.9882 0.0072937 40.7582 0.0072937 38.5934C0.0072937 31.5087 0.0072937 24.4403 0.0072937 17.3556C0.0072937 15.2564 1.27008 13.9936 3.36926 13.9936C7.55122 13.9772 11.7332 13.9772 15.9151 13.9936C17.9979 13.9936 19.2279 15.24 19.2443 17.3064C19.2607 20.898 19.2443 24.4731 19.2443 28.0483Z" fill="url(#paint0_linear_26_77)" fill-opacity="0.2"/>
<path d="M20.9991 10.5004C15.1771 10.5004 9.3552 10.5004 3.53326 10.5004C1.20448 10.5004 0.0236887 9.31966 0.00728882 6.97448C0.00728882 5.69529 -0.00911102 4.39971 0.00728882 3.12052C0.0400885 1.31653 1.31928 0.00454712 3.12326 0.00454712C15.0459 0.00454712 26.9686 0.00454712 38.8749 0.00454712C40.6789 0.00454712 41.9581 1.31653 41.9909 3.12052C42.0073 4.4817 42.0073 5.85929 41.9909 7.22048C41.9745 9.22126 40.7117 10.5004 38.7109 10.5004C32.807 10.5168 26.903 10.5004 20.9991 10.5004Z" fill="#46D3C5"/>
<path d="M20.9991 10.5004C15.1771 10.5004 9.3552 10.5004 3.53326 10.5004C1.20448 10.5004 0.0236887 9.31966 0.00728882 6.97448C0.00728882 5.69529 -0.00911102 4.39971 0.00728882 3.12052C0.0400885 1.31653 1.31928 0.00454712 3.12326 0.00454712C15.0459 0.00454712 26.9686 0.00454712 38.8749 0.00454712C40.6789 0.00454712 41.9581 1.31653 41.9909 3.12052C42.0073 4.4817 42.0073 5.85929 41.9909 7.22048C41.9745 9.22126 40.7117 10.5004 38.7109 10.5004C32.807 10.5168 26.903 10.5004 20.9991 10.5004Z" fill="url(#paint1_linear_26_77)" fill-opacity="0.2"/>
<path d="M32.3642 26.2443C30.265 26.2443 28.1494 26.2443 26.0502 26.2443C24.0331 26.2443 22.7867 24.9979 22.7703 22.9807C22.7539 21.062 22.7539 19.1596 22.7703 17.2408C22.7867 15.2564 24.0167 13.9936 25.9846 13.9936C30.2486 13.9772 34.5126 13.9772 38.7765 13.9936C40.7445 14.01 41.9745 15.3056 41.9909 17.2572C42.0073 19.176 42.0073 21.0784 41.9909 22.9971C41.9745 24.9487 40.7117 26.2279 38.7601 26.2443C36.6281 26.2607 34.4962 26.2443 32.3642 26.2443Z" fill="#46D3C5"/>
<path d="M32.3642 26.2443C30.265 26.2443 28.1494 26.2443 26.0502 26.2443C24.0331 26.2443 22.7867 24.9979 22.7703 22.9807C22.7539 21.062 22.7539 19.1596 22.7703 17.2408C22.7867 15.2564 24.0167 13.9936 25.9846 13.9936C30.2486 13.9772 34.5126 13.9772 38.7765 13.9936C40.7445 14.01 41.9745 15.3056 41.9909 17.2572C42.0073 19.176 42.0073 21.0784 41.9909 22.9971C41.9745 24.9487 40.7117 26.2279 38.7601 26.2443C36.6281 26.2607 34.4962 26.2443 32.3642 26.2443Z" fill="url(#paint2_linear_26_77)" fill-opacity="0.2"/>
<path d="M32.397 41.9881C30.265 41.9881 28.133 42.0045 26.001 41.9881C24.0331 41.9717 22.7867 40.7418 22.7703 38.7574C22.7539 36.8222 22.7539 34.8706 22.7703 32.9354C22.7867 31.0166 24.0331 29.7375 25.9518 29.7375C30.2486 29.7047 34.529 29.7047 38.8257 29.7375C40.7445 29.7539 41.9909 31.0494 41.9909 32.9682C42.0073 34.9034 42.0073 36.855 41.9909 38.7902C41.9745 40.6926 40.6953 41.9717 38.7929 41.9881C36.6609 42.0045 34.529 41.9881 32.397 41.9881Z" fill="#46D3C5"/>
<path d="M32.397 41.9881C30.265 41.9881 28.133 42.0045 26.001 41.9881C24.0331 41.9717 22.7867 40.7418 22.7703 38.7574C22.7539 36.8222 22.7539 34.8706 22.7703 32.9354C22.7867 31.0166 24.0331 29.7375 25.9518 29.7375C30.2486 29.7047 34.529 29.7047 38.8257 29.7375C40.7445 29.7539 41.9909 31.0494 41.9909 32.9682C42.0073 34.9034 42.0073 36.855 41.9909 38.7902C41.9745 40.6926 40.6953 41.9717 38.7929 41.9881C36.6609 42.0045 34.529 41.9881 32.397 41.9881Z" fill="url(#paint3_linear_26_77)" fill-opacity="0.2"/>
<defs>
<linearGradient id="paint0_linear_26_77" x1="9.62945" y1="13.9813" x2="9.62945" y2="41.9882" gradientUnits="userSpaceOnUse">
<stop stop-color="white"/>
<stop offset="1" stop-color="white" stop-opacity="0"/>
</linearGradient>
<linearGradient id="paint1_linear_26_77" x1="21.0016" y1="0.00454712" x2="21.0016" y2="10.5077" gradientUnits="userSpaceOnUse">
<stop stop-color="white"/>
<stop offset="1" stop-color="white" stop-opacity="0"/>
</linearGradient>
<linearGradient id="paint2_linear_26_77" x1="32.3806" y1="13.9813" x2="32.3806" y2="26.2516" gradientUnits="userSpaceOnUse">
<stop stop-color="white"/>
<stop offset="1" stop-color="white" stop-opacity="0"/>
</linearGradient>
<linearGradient id="paint3_linear_26_77" x1="32.3806" y1="29.7129" x2="32.3806" y2="41.9954" gradientUnits="userSpaceOnUse">
<stop stop-color="white"/>
<stop offset="1" stop-color="white" stop-opacity="0"/>
</linearGradient>
</defs>
</svg>
