<svg width="54" height="54" viewBox="0 0 54 54" fill="none" xmlns="http://www.w3.org/2000/svg">
<path d="M31.867 38.0023C22.2941 38.0023 12.7846 38.0023 3.19067 38.0023C3.19067 37.5801 3.19067 37.2001 3.19067 36.8202C3.19067 28.5238 3.19067 20.2274 3.19067 11.931C3.19067 8.23663 5.00403 6.40002 8.67291 6.40002C20.8814 6.40002 33.111 6.40002 45.3195 6.40002C49.2625 6.40002 51.2024 8.61662 50.7596 12.7332C50.4011 12.7332 50.0216 12.7332 49.6421 12.7332C45.9943 12.7332 42.3465 12.7332 38.6776 12.7332C34.4605 12.7543 31.867 15.372 31.867 19.594C31.867 25.315 31.867 31.057 31.867 36.7779C31.867 37.179 31.867 37.559 31.867 38.0023Z" fill="#00B2D9"/>
<path d="M31.867 38.0023C22.2941 38.0023 12.7846 38.0023 3.19067 38.0023C3.19067 37.5801 3.19067 37.2001 3.19067 36.8202C3.19067 28.5238 3.19067 20.2274 3.19067 11.931C3.19067 8.23663 5.00403 6.40002 8.67291 6.40002C20.8814 6.40002 33.111 6.40002 45.3195 6.40002C49.2625 6.40002 51.2024 8.61662 50.7596 12.7332C50.4011 12.7332 50.0216 12.7332 49.6421 12.7332C45.9943 12.7332 42.3465 12.7332 38.6776 12.7332C34.4605 12.7543 31.867 15.372 31.867 19.594C31.867 25.315 31.867 31.057 31.867 36.7779C31.867 37.179 31.867 37.559 31.867 38.0023Z" fill="url(#paint0_linear_26_61)" fill-opacity="0.2"/>
<path d="M54.0066 31.7959C54.0066 35.8491 54.0066 39.8812 54.0066 43.9344C54.0066 46.341 52.8047 47.5654 50.3799 47.5865C46.4369 47.6076 42.515 47.6076 38.572 47.5865C36.2315 47.5654 35.0085 46.3199 35.0085 43.9766C35.0085 35.828 35.0085 27.6583 35.0085 19.5096C35.0085 17.1664 36.2315 15.942 38.572 15.9209C42.5361 15.8998 46.5001 15.8998 50.4853 15.9209C52.7625 15.942 53.9855 17.1875 53.9855 19.4674C54.0066 23.5628 54.0066 27.6794 54.0066 31.7959ZM44.5181 42.8155C45.0874 42.8155 45.6356 42.8578 46.205 42.8155C47.0905 42.7311 47.7442 42.0345 47.6809 41.2112C47.6177 40.3245 47.1116 39.7545 46.226 39.7123C45.1085 39.649 43.991 39.649 42.8734 39.7123C41.9879 39.7545 41.3342 40.4934 41.3975 41.3167C41.4607 42.2033 41.9879 42.7311 42.8524 42.8367C43.3795 42.8578 43.9488 42.8155 44.5181 42.8155ZM44.5392 20.6707C43.7169 20.6496 43 21.3251 42.9578 22.1695C42.9156 23.0562 43.6114 23.7951 44.497 23.8162C45.3404 23.8373 46.0363 23.1617 46.0784 22.3173C46.1206 21.4307 45.4037 20.6707 44.5392 20.6707Z" fill="#00B2D9"/>
<path d="M54.0066 31.7959C54.0066 35.8491 54.0066 39.8812 54.0066 43.9344C54.0066 46.341 52.8047 47.5654 50.3799 47.5865C46.4369 47.6076 42.515 47.6076 38.572 47.5865C36.2315 47.5654 35.0085 46.3199 35.0085 43.9766C35.0085 35.828 35.0085 27.6583 35.0085 19.5096C35.0085 17.1664 36.2315 15.942 38.572 15.9209C42.5361 15.8998 46.5001 15.8998 50.4853 15.9209C52.7625 15.942 53.9855 17.1875 53.9855 19.4674C54.0066 23.5628 54.0066 27.6794 54.0066 31.7959ZM44.5181 42.8155C45.0874 42.8155 45.6356 42.8578 46.205 42.8155C47.0905 42.7311 47.7442 42.0345 47.6809 41.2112C47.6177 40.3245 47.1116 39.7545 46.226 39.7123C45.1085 39.649 43.991 39.649 42.8734 39.7123C41.9879 39.7545 41.3342 40.4934 41.3975 41.3167C41.4607 42.2033 41.9879 42.7311 42.8524 42.8367C43.3795 42.8578 43.9488 42.8155 44.5181 42.8155ZM44.5392 20.6707C43.7169 20.6496 43 21.3251 42.9578 22.1695C42.9156 23.0562 43.6114 23.7951 44.497 23.8162C45.3404 23.8373 46.0363 23.1617 46.0784 22.3173C46.1206 21.4307 45.4037 20.6707 44.5392 20.6707Z" fill="url(#paint1_linear_26_61)" fill-opacity="0.2"/>
<path d="M31.6983 41.2745C31.9092 43.4066 32.0989 45.4121 32.3098 47.5231C32.2255 47.5231 31.867 47.5654 31.4875 47.5654C22.3153 47.5654 13.1431 47.5231 3.97087 47.5865C0.154389 47.6076 -0.267321 45.0532 0.112218 42.4566C0.175474 42.0133 0.850211 41.6122 1.31409 41.2956C1.54603 41.1478 1.92557 41.2111 2.24185 41.2111C11.7725 41.2111 21.2821 41.2111 30.8127 41.2111C31.129 41.2322 31.4242 41.2745 31.6983 41.2745Z" fill="#00B2D9"/>
<path d="M31.6983 41.2745C31.9092 43.4066 32.0989 45.4121 32.3098 47.5231C32.2255 47.5231 31.867 47.5654 31.4875 47.5654C22.3153 47.5654 13.1431 47.5231 3.97087 47.5865C0.154389 47.6076 -0.267321 45.0532 0.112218 42.4566C0.175474 42.0133 0.850211 41.6122 1.31409 41.2956C1.54603 41.1478 1.92557 41.2111 2.24185 41.2111C11.7725 41.2111 21.2821 41.2111 30.8127 41.2111C31.129 41.2322 31.4242 41.2745 31.6983 41.2745Z" fill="url(#paint2_linear_26_61)" fill-opacity="0.2"/>
<defs>
<linearGradient id="paint0_linear_26_61" x1="27.0061" y1="6.40002" x2="27.0061" y2="38.0023" gradientUnits="userSpaceOnUse">
<stop stop-color="white"/>
<stop offset="1" stop-color="white" stop-opacity="0"/>
</linearGradient>
<linearGradient id="paint1_linear_26_61" x1="44.5076" y1="15.905" x2="44.5076" y2="47.6023" gradientUnits="userSpaceOnUse">
<stop stop-color="white"/>
<stop offset="1" stop-color="white" stop-opacity="0"/>
</linearGradient>
<linearGradient id="paint2_linear_26_61" x1="16.155" y1="41.1976" x2="16.155" y2="47.5866" gradientUnits="userSpaceOnUse">
<stop stop-color="white"/>
<stop offset="1" stop-color="white" stop-opacity="0"/>
</linearGradient>
</defs>
</svg>
