<svg width="43" height="43" viewBox="0 0 43 43" fill="none" xmlns="http://www.w3.org/2000/svg">
<path d="M9.50277 19.582C7.73159 19.582 5.94401 19.5984 4.17282 19.582C1.54885 19.5656 0.023663 18.0246 0.00726318 15.3852C0.00726318 11.8279 0.00726318 8.28689 0.00726318 4.72951C0.023663 2.05738 1.58165 0.516393 4.23842 0.5C7.79719 0.5 11.3396 0.5 14.8983 0.5C17.5223 0.5 19.0803 2.04098 19.0803 4.66393C19.0967 8.2377 19.0967 11.8279 19.0803 15.4016C19.0639 18.0574 17.5551 19.5492 14.8983 19.5656C13.1107 19.5984 11.3068 19.582 9.50277 19.582Z" fill="#2EC4E5"/>
<path d="M9.50277 19.582C7.73159 19.582 5.94401 19.5984 4.17282 19.582C1.54885 19.5656 0.023663 18.0246 0.00726318 15.3852C0.00726318 11.8279 0.00726318 8.28689 0.00726318 4.72951C0.023663 2.05738 1.58165 0.516393 4.23842 0.5C7.79719 0.5 11.3396 0.5 14.8983 0.5C17.5223 0.5 19.0803 2.04098 19.0803 4.66393C19.0967 8.2377 19.0967 11.8279 19.0803 15.4016C19.0639 18.0574 17.5551 19.5492 14.8983 19.5656C13.1107 19.5984 11.3068 19.582 9.50277 19.582Z" fill="url(#paint0_linear_26_71)" fill-opacity="0.2"/>
<path d="M32.4954 19.582C30.7242 19.582 28.9366 19.582 27.1655 19.582C24.4595 19.5656 22.9343 18.0738 22.9343 15.3852C22.9179 11.8279 22.9179 8.28689 22.9343 4.72951C22.9507 2.04098 24.4759 0.5 27.1491 0.5C30.7078 0.5 34.2502 0.5 37.809 0.5C40.4329 0.5 42.0073 2.05738 42.0237 4.66393C42.0401 8.2377 42.0237 11.8279 42.0237 15.4016C42.0237 18.0246 40.4821 19.5492 37.8418 19.582C36.0542 19.5984 34.2666 19.582 32.4954 19.582Z" fill="#2EC4E5"/>
<path d="M32.4954 19.582C30.7242 19.582 28.9366 19.582 27.1655 19.582C24.4595 19.5656 22.9343 18.0738 22.9343 15.3852C22.9179 11.8279 22.9179 8.28689 22.9343 4.72951C22.9507 2.04098 24.4759 0.5 27.1491 0.5C30.7078 0.5 34.2502 0.5 37.809 0.5C40.4329 0.5 42.0073 2.05738 42.0237 4.66393C42.0401 8.2377 42.0237 11.8279 42.0237 15.4016C42.0237 18.0246 40.4821 19.5492 37.8418 19.582C36.0542 19.5984 34.2666 19.582 32.4954 19.582Z" fill="url(#paint1_linear_26_71)" fill-opacity="0.2"/>
<path d="M19.0967 32.9426C19.0967 34.7131 19.1131 36.5 19.0967 38.2705C19.0803 40.959 17.5551 42.5 14.8819 42.5C11.3232 42.5 7.78082 42.5 4.22205 42.5C1.59807 42.5 0.0236887 40.9426 0.00728882 38.3361C-0.00911102 34.7623 0.00728882 31.1721 0.00728882 27.5984C0.00728882 25.0082 1.53247 23.4508 4.10725 23.4344C7.74802 23.418 11.3724 23.418 15.0131 23.4344C17.5551 23.4508 19.0639 24.9754 19.0803 27.5328C19.1131 29.3361 19.0967 31.1393 19.0967 32.9426Z" fill="#2EC4E5"/>
<path d="M19.0967 32.9426C19.0967 34.7131 19.1131 36.5 19.0967 38.2705C19.0803 40.959 17.5551 42.5 14.8819 42.5C11.3232 42.5 7.78082 42.5 4.22205 42.5C1.59807 42.5 0.0236887 40.9426 0.00728882 38.3361C-0.00911102 34.7623 0.00728882 31.1721 0.00728882 27.5984C0.00728882 25.0082 1.53247 23.4508 4.10725 23.4344C7.74802 23.418 11.3724 23.418 15.0131 23.4344C17.5551 23.4508 19.0639 24.9754 19.0803 27.5328C19.1131 29.3361 19.0967 31.1393 19.0967 32.9426Z" fill="url(#paint2_linear_26_71)" fill-opacity="0.2"/>
<path d="M34.3649 31.0246C35.2833 31.0246 36.1033 31.0082 36.9233 31.0246C37.8253 31.041 38.1697 31.3689 38.2025 32.2541C38.3337 34.7295 38.2189 34.8443 35.7589 34.8443C35.3325 34.8443 34.9061 34.8443 34.3649 34.8443C34.3649 35.7787 34.3813 36.6148 34.3649 37.4508C34.3485 38.3197 34.0205 38.6475 33.1841 38.6639C30.6914 38.6967 30.4782 38.7951 30.5438 36.1721C30.5602 35.7623 30.5438 35.3525 30.5438 34.8443C29.6746 34.8443 28.8546 34.8607 28.051 34.8443C27.0178 34.8279 26.7554 34.5492 26.739 33.5C26.7062 31.0082 26.7062 31.0082 29.199 31.0082C29.609 31.0082 30.019 31.0082 30.5274 31.0082C30.5274 30.1557 30.511 29.3361 30.5274 28.5328C30.5438 27.5164 30.8554 27.2213 31.8558 27.2049C32.2166 27.2049 32.561 27.2049 32.9217 27.2049C34.1025 27.2049 34.3485 27.4508 34.3485 28.6639C34.3813 29.4508 34.3649 30.2049 34.3649 31.0246Z" fill="#2EC4E5"/>
<path d="M34.3649 31.0246C35.2833 31.0246 36.1033 31.0082 36.9233 31.0246C37.8253 31.041 38.1697 31.3689 38.2025 32.2541C38.3337 34.7295 38.2189 34.8443 35.7589 34.8443C35.3325 34.8443 34.9061 34.8443 34.3649 34.8443C34.3649 35.7787 34.3813 36.6148 34.3649 37.4508C34.3485 38.3197 34.0205 38.6475 33.1841 38.6639C30.6914 38.6967 30.4782 38.7951 30.5438 36.1721C30.5602 35.7623 30.5438 35.3525 30.5438 34.8443C29.6746 34.8443 28.8546 34.8607 28.051 34.8443C27.0178 34.8279 26.7554 34.5492 26.739 33.5C26.7062 31.0082 26.7062 31.0082 29.199 31.0082C29.609 31.0082 30.019 31.0082 30.5274 31.0082C30.5274 30.1557 30.511 29.3361 30.5274 28.5328C30.5438 27.5164 30.8554 27.2213 31.8558 27.2049C32.2166 27.2049 32.561 27.2049 32.9217 27.2049C34.1025 27.2049 34.3485 27.4508 34.3485 28.6639C34.3813 29.4508 34.3649 30.2049 34.3649 31.0246Z" fill="url(#paint3_linear_26_71)" fill-opacity="0.2"/>
<defs>
<linearGradient id="paint0_linear_26_71" x1="9.54992" y1="0.5" x2="9.54992" y2="19.5893" gradientUnits="userSpaceOnUse">
<stop stop-color="white"/>
<stop offset="1" stop-color="white" stop-opacity="0"/>
</linearGradient>
<linearGradient id="paint1_linear_26_71" x1="32.4765" y1="0.5" x2="32.4765" y2="19.5893" gradientUnits="userSpaceOnUse">
<stop stop-color="white"/>
<stop offset="1" stop-color="white" stop-opacity="0"/>
</linearGradient>
<linearGradient id="paint2_linear_26_71" x1="9.552" y1="23.4221" x2="9.552" y2="42.5" gradientUnits="userSpaceOnUse">
<stop stop-color="white"/>
<stop offset="1" stop-color="white" stop-opacity="0"/>
</linearGradient>
<linearGradient id="paint3_linear_26_71" x1="32.4853" y1="27.2049" x2="32.4853" y2="38.674" gradientUnits="userSpaceOnUse">
<stop stop-color="white"/>
<stop offset="1" stop-color="white" stop-opacity="0"/>
</linearGradient>
</defs>
</svg>
