<svg width="84" height="84" viewBox="0 0 84 84" fill="none" xmlns="http://www.w3.org/2000/svg">
<g filter="url(#filter0_d_33_594)">
<circle cx="38" cy="38" r="32" fill="white"/>
</g>
<g clip-path="url(#clip0_33_594)">
<path d="M37.9967 27.0067C40.4152 27.0067 42.8404 27.0133 45.2588 27C45.7319 27 46.085 27.1532 46.3915 27.5064C48.8033 30.278 51.2284 33.0429 53.6469 35.8078C54.1333 36.3608 54.12 36.8872 53.607 37.4335C48.6967 42.6969 43.7931 47.9536 38.8828 53.2103C38.3165 53.8166 37.6902 53.8166 37.1306 53.2169C32.2003 47.9402 27.2768 42.6635 22.3532 37.3868C21.8868 36.8872 21.8801 36.3475 22.3265 35.8411C24.7717 33.0429 27.2235 30.2446 29.6686 27.4397C29.9284 27.1466 30.2349 27 30.6347 27.0067C33.0865 27.0067 35.5383 27.0067 37.9967 27.0067ZM37.9967 49.7724C39.669 45.6883 41.3013 41.6908 42.9403 37.6867C39.629 37.6867 36.3577 37.6867 33.0531 37.6867C34.6988 41.7041 36.3311 45.6883 37.9967 49.7724ZM35.8381 29.1387C35.6648 29.1387 35.5649 29.1387 35.4716 29.1387C34.1058 29.1387 32.74 29.1453 31.3809 29.132C31.121 29.132 30.9545 29.212 30.7879 29.4052C29.1489 31.2907 27.5033 33.1628 25.8643 35.0416C25.7377 35.1882 25.6111 35.3348 25.4579 35.5213C25.5578 35.528 25.5978 35.5347 25.6378 35.5347C27.3367 35.5347 29.029 35.5413 30.7279 35.528C30.8545 35.528 31.0144 35.4214 31.0944 35.3215C31.9805 34.1822 32.8533 33.0362 33.7327 31.8969C34.4123 30.9975 35.0985 30.0981 35.8381 29.1387ZM50.5289 35.5347C50.4823 35.4547 50.4689 35.4214 50.4489 35.4014C48.67 33.3627 46.8845 31.324 45.0989 29.2919C45.019 29.2053 44.8524 29.152 44.7258 29.152C43.3067 29.1453 41.8876 29.1453 40.4618 29.1453C40.3819 29.1453 40.3019 29.1587 40.182 29.172C41.7943 31.2773 43.3867 33.3427 44.979 35.4081C45.039 35.488 45.1856 35.528 45.2922 35.528C45.7785 35.5413 46.2715 35.5347 46.7579 35.5347C47.9971 35.5347 49.2364 35.5347 50.5289 35.5347ZM50.4689 37.6667C50.289 37.6667 50.1891 37.6667 50.0958 37.6667C48.5834 37.6667 47.0777 37.6733 45.5653 37.66C45.3321 37.66 45.2189 37.7266 45.1323 37.9465C43.893 41.0046 42.6405 44.0627 41.3879 47.1141C41.348 47.2207 41.308 47.3206 41.268 47.4272C41.288 47.4406 41.308 47.4472 41.328 47.4605C44.3527 44.2226 47.3775 40.9779 50.4689 37.6667ZM34.6855 47.4739C34.6988 47.4605 34.7188 47.4539 34.7321 47.4406C34.7188 47.4006 34.7054 47.3606 34.6921 47.3206C33.4129 44.1893 32.1337 41.0645 30.8612 37.9332C30.7746 37.72 30.6613 37.6667 30.4414 37.6667C28.9224 37.6733 27.3967 37.6733 25.8776 37.6733C25.7844 37.6733 25.6977 37.6867 25.5578 37.7C28.6226 40.9846 31.654 44.2292 34.6855 47.4739ZM37.9967 29.8249C36.531 31.737 35.0985 33.6092 33.6328 35.5147C36.5643 35.5147 39.4358 35.5147 42.3607 35.5147C40.9016 33.6092 39.4625 31.737 37.9967 29.8249Z" fill="#FDD63E"/>
</g>
<defs>
<filter id="filter0_d_33_594" x="0" y="0" width="84" height="84" filterUnits="userSpaceOnUse" color-interpolation-filters="sRGB">
<feFlood flood-opacity="0" result="BackgroundImageFix"/>
<feColorMatrix in="SourceAlpha" type="matrix" values="0 0 0 0 0 0 0 0 0 0 0 0 0 0 0 0 0 0 127 0" result="hardAlpha"/>
<feOffset dx="4" dy="4"/>
<feGaussianBlur stdDeviation="5"/>
<feComposite in2="hardAlpha" operator="out"/>
<feColorMatrix type="matrix" values="0 0 0 0 0 0 0 0 0 0 0 0 0 0 0 0 0 0 0.15 0"/>
<feBlend mode="normal" in2="BackgroundImageFix" result="effect1_dropShadow_33_594"/>
<feBlend mode="normal" in="SourceGraphic" in2="effect1_dropShadow_33_594" result="shape"/>
</filter>
<clipPath id="clip0_33_594">
<rect width="32" height="26.6633" fill="white" transform="translate(22 27)"/>
</clipPath>
</defs>
</svg>
