<svg width="18" height="16" viewBox="0 0 18 16" fill="none" xmlns="http://www.w3.org/2000/svg">
<path d="M9.21828 0C9.55672 0.781911 9.8368 1.40044 10.1052 2.01896C10.5137 2.96426 10.9338 3.89788 11.3073 4.85485C11.5057 5.345 11.7857 5.57841 12.3342 5.61342C13.9448 5.73012 15.5436 5.90518 17.1541 6.05689C17.2474 6.06856 17.3291 6.0919 17.5509 6.12691C17.3525 6.33698 17.2241 6.48869 17.0724 6.61707C15.917 7.63238 14.7733 8.65937 13.6063 9.65135C13.2445 9.96645 13.1045 10.2582 13.2329 10.76C13.6063 12.2422 13.9214 13.7476 14.2482 15.2531C14.2949 15.4398 14.3182 15.6265 14.3766 15.9533C14.0965 15.8133 13.9214 15.7433 13.7464 15.6499C12.4393 14.8797 11.1322 14.1211 9.8368 13.3158C9.38166 13.0357 9.01988 13.0124 8.55307 13.3042C7.26933 14.1094 5.95059 14.868 4.65518 15.6382C4.48013 15.7433 4.2934 15.8249 3.97831 15.9883C4.22338 14.8796 4.43345 13.9227 4.64351 12.954C4.8069 12.2188 4.97028 11.4719 5.15701 10.7367C5.27371 10.2815 5.15701 9.96645 4.79523 9.66302C3.63987 8.65937 2.48451 7.63238 1.3058 6.6054C1.16576 6.48869 1.03739 6.34865 0.78064 6.11524C1.74928 6.02188 2.54286 5.92852 3.34811 5.8585C4.25839 5.76513 5.16868 5.6601 6.07896 5.61342C6.60413 5.59008 6.88421 5.38001 7.08261 4.90153C7.65445 3.52443 8.24964 2.14734 8.84482 0.781911C8.93819 0.571845 9.04322 0.37345 9.21828 0Z" fill="#46D3C5"/>
</svg>
