<svg width="38" height="38" viewBox="0 0 38 38" fill="none" xmlns="http://www.w3.org/2000/svg">
<rect width="38" height="38" rx="19" fill="#E3E1E2"/>
<path d="M26.3125 11.5938C24.3906 9.625 21.7656 8.5 18.9531 8.5C13.2344 8.5 8.54688 13.1875 8.54688 18.9062C8.54688 20.7812 9.0625 22.5625 9.95312 24.1094L8.5 29.5L13.9844 28.0938C15.5312 28.8906 17.2188 29.3594 18.9531 29.3594C24.7188 29.3594 29.5 24.6719 29.5 18.9531C29.5 16.1406 28.2812 13.5625 26.3125 11.5938ZM18.9531 27.5781C17.4062 27.5781 15.9062 27.1562 14.5469 26.3594L14.2656 26.1719L10.9844 27.0625L11.875 23.875L11.6406 23.5469C10.7969 22.1406 10.3281 20.5469 10.3281 18.9062C10.3281 14.1719 14.2188 10.2812 19 10.2812C21.2969 10.2812 23.4531 11.1719 25.0938 12.8125C26.7344 14.4531 27.7188 16.6094 27.7188 18.9531C27.7188 23.6875 23.7344 27.5781 18.9531 27.5781ZM23.7344 21.1094C23.4531 20.9688 22.1875 20.3594 21.9531 20.2656C21.7188 20.1719 21.5312 20.125 21.3438 20.4062C21.2031 20.6406 20.6875 21.25 20.5469 21.4375C20.3594 21.5781 20.2188 21.625 19.9844 21.4844C18.4375 20.7344 17.4531 20.125 16.4219 18.3906C16.1406 17.9219 16.7031 17.9688 17.1719 16.9844C17.2656 16.7969 17.2188 16.6562 17.1719 16.5156C17.125 16.375 16.5625 15.1094 16.375 14.5938C16.1406 14.0781 15.9531 14.125 15.7656 14.125C15.625 14.125 15.4375 14.125 15.2969 14.125C15.1094 14.125 14.8281 14.1719 14.5938 14.4531C14.3594 14.7344 13.7031 15.3438 13.7031 16.6094C13.7031 17.9219 14.5938 19.1406 14.7344 19.3281C14.875 19.4688 16.5625 22.0938 19.1875 23.2188C20.8281 23.9688 21.4844 24.0156 22.3281 23.875C22.7969 23.8281 23.8281 23.2656 24.0625 22.6562C24.2969 22.0469 24.2969 21.5312 24.2031 21.4375C24.1562 21.2969 23.9688 21.25 23.7344 21.1094Z" fill="white"/>
</svg>
