<svg width="84" height="84" viewBox="0 0 84 84" fill="none" xmlns="http://www.w3.org/2000/svg">
<g filter="url(#filter0_d_33_591)">
<circle cx="38" cy="38" r="32" fill="white"/>
</g>
<g clip-path="url(#clip0_33_591)">
<path d="M32.0389 40.1009C30.9149 42.4807 29.8141 44.814 28.7289 47.1551C28.5428 47.566 28.318 47.7365 27.8529 47.7133C27.07 47.6745 26.2793 47.7055 25.4886 47.7055C25.349 47.7055 25.2095 47.7055 24.9924 47.7055C25.0855 47.4885 25.132 47.3334 25.2095 47.1939C26.7754 44.2094 28.3335 41.2249 29.9072 38.2481C30.0312 38.0233 30.0389 37.845 29.9149 37.6047C28.3955 34.5815 26.8839 31.5427 25.3723 28.504C25.1397 28.0466 25.163 28.0078 25.6746 28.0078C26.5506 28.0078 27.4343 28.0233 28.3103 28.0001C28.6436 27.9923 28.8141 28.1241 28.9537 28.4187C29.9924 30.6822 31.0467 32.9381 32.101 35.1939C32.1475 35.2947 32.2017 35.3954 32.2793 35.5427C32.3568 35.3799 32.4188 35.2481 32.4731 35.1241C33.4963 32.9071 34.5196 30.6978 35.5273 28.4807C35.6824 28.1396 35.8762 27.9923 36.256 28.0078C37.0467 28.0388 37.8296 28.0156 38.6203 28.0156C39.101 28.0156 39.132 28.0621 38.9149 28.4885C37.4033 31.4109 35.8994 34.3334 34.38 37.2559C34.2482 37.5195 34.2405 37.7055 34.38 37.9691C35.9924 41.0388 37.5971 44.1241 39.194 47.2016C39.442 47.6822 39.4188 47.721 38.8917 47.721C38.0002 47.721 37.1087 47.7055 36.2172 47.7288C35.8684 47.7365 35.6824 47.6202 35.5351 47.3024C34.442 45.0078 33.3258 42.7288 32.2172 40.4419C32.163 40.3179 32.1087 40.2249 32.0389 40.1009Z" fill="#FF2BC2"/>
<path d="M48.4341 33.0078C48.4419 32.845 48.4496 32.7055 48.4574 32.566C48.4574 31.1939 48.4651 29.8295 48.4496 28.4574C48.4419 28.0931 48.5659 27.9846 48.9225 28.0001C49.6977 28.0233 50.4729 28.0233 51.2481 28.0001C51.6047 27.9923 51.7055 28.1009 51.7055 28.4574C51.6977 33.8838 51.6977 39.3024 51.6977 44.7288C51.6977 45.3334 51.7597 45.9381 51.7597 46.5505C51.7597 46.6823 51.6744 46.8993 51.5659 46.9458C49.1938 48.0078 46.7365 48.4032 44.2326 47.504C42.1628 46.7598 40.9923 45.1784 40.4962 43.0931C40.031 41.1241 40.031 39.1629 40.845 37.2792C42.093 34.3954 44.3954 33.0776 47.4806 32.9846C47.6357 32.9768 47.7907 32.9846 47.9458 32.9846C48.0931 32.9923 48.2481 33.0001 48.4341 33.0078ZM48.4496 40.4109C48.4496 39.0698 48.4496 37.721 48.4496 36.3799C48.4496 35.8373 48.4186 35.8063 47.8682 35.752C45.969 35.566 44.4651 36.504 43.8372 38.3102C43.3876 39.5892 43.3954 40.8993 43.6899 42.2016C44.1861 44.3489 45.7675 45.4032 47.9458 45.0543C48.3024 45.0001 48.4729 44.8916 48.4651 44.4729C48.4341 43.1241 48.4496 41.7675 48.4496 40.4109Z" fill="#FF2BC2"/>
</g>
<defs>
<filter id="filter0_d_33_591" x="0" y="0" width="84" height="84" filterUnits="userSpaceOnUse" color-interpolation-filters="sRGB">
<feFlood flood-opacity="0" result="BackgroundImageFix"/>
<feColorMatrix in="SourceAlpha" type="matrix" values="0 0 0 0 0 0 0 0 0 0 0 0 0 0 0 0 0 0 127 0" result="hardAlpha"/>
<feOffset dx="4" dy="4"/>
<feGaussianBlur stdDeviation="5"/>
<feComposite in2="hardAlpha" operator="out"/>
<feColorMatrix type="matrix" values="0 0 0 0 0 0 0 0 0 0 0 0 0 0 0 0 0 0 0.15 0"/>
<feBlend mode="normal" in2="BackgroundImageFix" result="effect1_dropShadow_33_591"/>
<feBlend mode="normal" in="SourceGraphic" in2="effect1_dropShadow_33_591" result="shape"/>
</filter>
<clipPath id="clip0_33_591">
<rect width="26.7519" height="20" fill="white" transform="translate(25 28)"/>
</clipPath>
</defs>
</svg>
